<?xml version="1.0" encoding="UTF-8" standalone="no"?>
<svg xmlns:dc="http://purl.org/dc/elements/1.1/" xmlns:cc="http://creativecommons.org/ns#" xmlns:rdf="http://www.w3.org/1999/02/22-rdf-syntax-ns#" xmlns:svg="http://www.w3.org/2000/svg" xmlns="http://www.w3.org/2000/svg" xmlns:xlink="http://www.w3.org/1999/xlink" version="1.1" id="Layer_1" x="0px" y="0px" width="268.94299" height="158.474" viewBox="0 0 268.94299 158.474" enable-background="new 0 0 324 259" xml:space="preserve"><metadata id="metadata197"><rdf:RDF><cc:Work rdf:about=""><dc:format>image/svg+xml</dc:format><dc:type rdf:resource="http://purl.org/dc/dcmitype/StillImage"/><dc:title/></cc:Work></rdf:RDF></metadata><defs id="defs195"/><g transform="translate(-28.953,-44.633)" id="g4701"><g style="opacity:0.3" id="g56"><g id="g54"><defs id="defs47"><rect height="45.945" width="131.705" y="78.160004" x="33.702" id="SVGID_1_"/></defs><clipPath id="SVGID_2_"><use height="100%" width="100%" y="0" x="0" style="overflow:visible" id="use49" overflow="visible" xlink:href="#SVGID_1_"/></clipPath><line style="fill:none;stroke:#000000;stroke-width:4.50600004;stroke-linecap:round;stroke-miterlimit:10" id="line52" y2="80.413002" x2="35.955002" y1="121.853" x1="163.15401" stroke-miterlimit="10" clip-path="url(#SVGID_2_)"/></g></g><g style="opacity:0.3" id="g68"><g id="g66"><defs id="defs59"><rect height="46.446999" width="133.55099" y="77.657997" x="160.00101" id="SVGID_3_"/></defs><clipPath id="SVGID_4_"><use height="100%" width="100%" y="0" x="0" style="overflow:visible" id="use61" overflow="visible" xlink:href="#SVGID_3_"/></clipPath><line style="fill:none;stroke:#000000;stroke-width:4.50600004;stroke-linecap:round;stroke-miterlimit:10" id="line64" y2="79.911003" x2="291.29901" y1="121.853" x1="162.254" stroke-miterlimit="10" clip-path="url(#SVGID_4_)"/></g></g><g style="opacity:0.3" id="g80"><g id="g78"><defs id="defs71"><rect height="83.649002" width="4.7880001" y="119.458" x="159.86" id="SVGID_5_"/></defs><clipPath id="SVGID_6_"><use height="100%" width="100%" y="0" x="0" style="overflow:visible" id="use73" overflow="visible" xlink:href="#SVGID_5_"/></clipPath><line style="fill:none;stroke:#000000;stroke-width:4.78700018;stroke-linecap:round;stroke-miterlimit:10" id="line76" y2="200.714" x2="162.254" y1="121.853" x1="162.254" stroke-miterlimit="10" clip-path="url(#SVGID_6_)"/></g></g><a id="a90" xlink:href="/step6" target="_blank"><g id="g88"><path style="fill:#ed1a59" id="path82" d="M 76.125,94.21 38.508,81.954 c -6.229,11.335 -9.555,24.268 -9.555,37.702 0,14.784 4.027,28.96 11.52,41.065 l 38.435,-12.492 c -6.906,-6.906 -11.297,-17.149 -11.297,-28.573 0,-9.803 3.233,-18.743 8.514,-25.446"/><path style="fill:#ffffff" id="path84" d="m 57.98,121.676 c 0,5.575 -4.52,10.098 -10.098,10.098 -5.576,0 -10.097,-4.522 -10.097,-10.098 0,-5.576 4.521,-10.099 10.097,-10.099 5.578,0 10.098,4.523 10.098,10.099"/><text style="font-size:14px;font-family:OctinStencilRg-Bold" id="text86" font-size="14" transform="translate(43.7563,126.4346)"><tspan id="tspan4684" style="font-style:normal;font-variant:normal;font-weight:bold;font-stretch:normal;font-size:14px;font-family:sans-serif;-inkscape-font-specification:'sans-serif, Bold';font-variant-ligatures:normal;font-variant-caps:normal;font-variant-numeric:normal;font-feature-settings:normal;text-align:start;writing-mode:lr-tb;text-anchor:start">6</tspan></text>
</g></a><a id="a140" xlink:href="/step5" target="_blank"><g id="g138"><path style="fill:#79439a" id="path130" d="m 80.018,149.29 -38.801,12.611 c 2.272,3.521 4.838,6.859 7.692,9.979 13.457,14.703 31.541,22.799 50.921,22.799 h 61.749 V 157.277 H 99.83 c -7.466,-10e-4 -14.343,-2.991 -19.812,-7.987"/><path style="fill:#ffffff" id="path132" d="m 121.09,176.054 c 0,5.576 -4.52,10.098 -10.098,10.098 -5.576,0 -10.097,-4.521 -10.097,-10.098 0,-5.577 4.521,-10.098 10.097,-10.098 5.578,0 10.098,4.522 10.098,10.098"/><text style="font-size:14px;font-family:OctinStencilRg-Bold" id="text134" font-size="14" transform="translate(106.8682,181.8184)"><tspan id="tspan4682" style="font-style:normal;font-variant:normal;font-weight:bold;font-stretch:normal;font-size:14px;font-family:sans-serif;-inkscape-font-specification:'sans-serif, Bold';font-variant-ligatures:normal;font-variant-caps:normal;font-variant-numeric:normal;font-feature-settings:normal;text-align:start;writing-mode:lr-tb;text-anchor:start">5</tspan></text>
<path style="fill:#0c050d" id="path136" d="m 54.035,147.042 c -0.141,-0.354 0.266,-0.584 0.559,-0.479 0.402,0.14 0.804,0.276 1.209,0.411 -0.069,-0.201 0.195,-0.346 0.341,-0.17 0.11,0.127 0.213,0.256 0.321,0.384 0.927,0.298 1.859,0.589 2.785,0.89 0.562,0.184 1.812,0.319 2.07,0.945 0.031,0.078 -0.012,0.18 -0.08,0.227 -0.033,0.02 -0.018,0.004 -0.051,0.025 -0.09,0.061 -0.148,-0.016 -0.211,-0.094 -0.017,-0.023 -0.037,-0.045 -0.054,-0.066 -0.008,-0.008 -0.057,0.021 -0.061,0.012 -0.113,0.021 -0.264,0.002 -0.406,-0.098 -0.291,-0.082 -0.592,-0.154 -0.885,-0.236 -0.58,-0.164 -1.166,-0.326 -1.746,-0.496 -0.189,-0.055 -0.379,-0.107 -0.568,-0.162 4.183,5.043 8.172,10.146 12.781,14.857 0.369,0.377 -0.135,0.965 -0.547,0.621 l -0.457,-0.381 c -0.062,-0.053 -0.092,-0.119 -0.105,-0.184 -4.563,-4.592 -9.163,-9.668 -12.588,-15.18 -0.405,-0.115 -0.811,-0.227 -1.217,-0.338 0.724,1.576 1.537,3.152 2.109,4.77 0.141,0.4 -0.447,0.684 -0.674,0.324 -1.062,-1.697 -1.8,-3.723 -2.525,-5.582"/></g></a><a id="a152" xlink:href="/step4" target="_blank"><g id="g150"><path style="fill:#0082be" id="path142" d="m 245.928,150.089 c -5.314,4.516 -11.848,7.188 -18.908,7.188 h -64.09 v 37.402 h 64.09 c 19.381,0 37.465,-8.096 50.922,-22.799 2.602,-2.844 4.963,-5.873 7.082,-9.055 z"/><path style="fill:#ffffff" id="path144" d="m 225.434,176.054 c 0,5.576 -4.521,10.098 -10.098,10.098 -5.578,0 -10.098,-4.521 -10.098,-10.098 0,-5.577 4.52,-10.098 10.098,-10.098 5.576,0 10.098,4.522 10.098,10.098"/><text style="font-size:14px;font-family:OctinStencilRg-Bold" id="text146" font-size="14" transform="translate(211.3086,181.8184)"><tspan id="tspan4680" style="font-style:normal;font-variant:normal;font-weight:bold;font-stretch:normal;font-size:14px;font-family:sans-serif;-inkscape-font-specification:'sans-serif, Bold';font-variant-ligatures:normal;font-variant-caps:normal;font-variant-numeric:normal;font-feature-settings:normal;text-align:start;writing-mode:lr-tb;text-anchor:start">4</tspan></text>
<path style="fill:#0c050d" id="path148" d="m 149.545,177.903 c -0.342,0.174 -0.191,0.615 0.096,0.732 0.394,0.162 0.785,0.328 1.175,0.497 -0.183,0.104 -0.084,0.39 0.143,0.354 0.166,-0.022 0.33,-0.049 0.494,-0.072 0.891,0.396 1.78,0.799 2.67,1.191 0.543,0.238 1.565,0.969 2.174,0.674 0.076,-0.037 0.111,-0.143 0.092,-0.221 -0.012,-0.037 -0.012,-0.016 -0.022,-0.053 -0.027,-0.105 -0.121,-0.088 -0.218,-0.072 -0.03,0.006 -0.059,0.01 -0.086,0.014 -0.01,0 -0.028,-0.053 -0.038,-0.051 -0.07,-0.088 -0.195,-0.176 -0.367,-0.197 -0.271,-0.131 -0.545,-0.277 -0.818,-0.412 -0.541,-0.264 -1.086,-0.533 -1.633,-0.793 -0.178,-0.086 -0.353,-0.172 -0.531,-0.258 6.48,-0.975 12.854,-2.125 19.428,-2.566 0.529,-0.038 0.543,-0.811 0.008,-0.831 -0.199,-0.005 -0.396,-0.011 -0.594,-0.019 -0.082,-0.002 -0.148,0.027 -0.203,0.068 -6.461,0.385 -13.271,1.107 -19.499,2.936 -0.38,-0.184 -0.757,-0.371 -1.132,-0.559 1.588,-0.693 3.246,-1.328 4.75,-2.152 0.369,-0.205 0.121,-0.809 -0.287,-0.691 -1.922,0.559 -3.823,1.579 -5.602,2.481"/></g></a><a id="a164" xlink:href="/step3" target="_blank"><g id="g162"><path style="fill:#27aae1" id="path154" d="m 247.096,149.048 38.693,12.605 c 7.869,-12.309 12.107,-26.832 12.107,-41.996 0,-13.562 -3.389,-26.609 -9.73,-38.018 l -37.701,12.253 c 5.434,6.738 8.773,15.802 8.773,25.765 0,11.883 -4.75,22.49 -12.142,29.391"/><path style="fill:#ffffff" id="path156" d="m 287.701,121.676 c 0,5.575 -4.52,10.098 -10.098,10.098 -5.576,0 -10.098,-4.522 -10.098,-10.098 0,-5.576 4.521,-10.099 10.098,-10.099 5.579,0 10.098,4.523 10.098,10.099"/><text style="font-size:14px;font-family:OctinStencilRg-Bold" id="text158" font-size="14" transform="translate(273.9023,126.0703)"><tspan id="tspan4678" style="font-style:normal;font-variant:normal;font-weight:bold;font-stretch:normal;font-size:14px;font-family:sans-serif;-inkscape-font-specification:'sans-serif, Bold';font-variant-ligatures:normal;font-variant-caps:normal;font-variant-numeric:normal;font-feature-settings:normal;text-align:start;writing-mode:lr-tb;text-anchor:start">3</tspan></text>
<path style="fill:#0c050d" id="path160" d="m 255.035,168.21 c -0.141,0.357 0.266,0.586 0.559,0.48 0.402,-0.141 0.805,-0.277 1.209,-0.41 -0.068,0.2 0.195,0.346 0.342,0.168 0.109,-0.127 0.213,-0.256 0.32,-0.383 0.928,-0.299 1.859,-0.588 2.785,-0.891 0.562,-0.182 1.812,-0.318 2.07,-0.943 0.031,-0.08 -0.012,-0.182 -0.08,-0.227 -0.033,-0.021 -0.018,-0.004 -0.051,-0.024 -0.09,-0.062 -0.148,0.013 -0.211,0.091 -0.018,0.023 -0.037,0.045 -0.055,0.068 -0.008,0.007 -0.057,-0.021 -0.061,-0.014 -0.113,-0.02 -0.264,0 -0.406,0.098 -0.291,0.082 -0.592,0.154 -0.885,0.236 -0.58,0.166 -1.166,0.328 -1.746,0.496 l -0.568,0.164 c 4.184,-5.045 8.172,-10.148 12.781,-14.857 0.369,-0.379 -0.135,-0.967 -0.547,-0.623 l -0.457,0.382 c -0.062,0.052 -0.092,0.118 -0.105,0.185 -4.562,4.592 -9.162,9.666 -12.588,15.178 -0.404,0.117 -0.811,0.227 -1.217,0.338 0.725,-1.574 1.537,-3.152 2.109,-4.77 0.141,-0.398 -0.447,-0.684 -0.674,-0.322 -1.061,1.695 -1.799,3.721 -2.524,5.58"/></g></a><a id="a176" xlink:href="/step2" target="_blank"><g id="g174"><path style="fill:#f7941e" id="path166" d="M 249.529,92.776 287.486,80.438 C 284.791,75.793 281.599,71.431 277.941,67.432 264.484,52.731 246.4,44.634 227.02,44.634 h -64.05 v 37.403 h 64.049 c 8.754,0 16.698,4.101 22.51,10.739"/><path style="fill:#ffffff" id="path168" d="m 227.957,64.456 c 0,5.576 -4.521,10.098 -10.098,10.098 -5.576,0 -10.098,-4.521 -10.098,-10.098 0,-5.577 4.521,-10.099 10.098,-10.099 5.578,0 10.098,4.522 10.098,10.099"/><text style="font-size:14px;font-family:OctinStencilRg-Bold" id="text170" font-size="14" transform="translate(214.2061,69.7197)"><tspan id="tspan4676" style="font-style:normal;font-variant:normal;font-weight:bold;font-stretch:normal;font-size:14px;font-family:sans-serif;-inkscape-font-specification:'sans-serif, Bold';font-variant-ligatures:normal;font-variant-caps:normal;font-variant-numeric:normal;font-feature-settings:normal;text-align:start;writing-mode:lr-tb;text-anchor:start">2</tspan></text>
<path style="fill:#0c050d" id="path172" d="m 273.189,98.012 c 0.295,0.245 0.639,-0.066 0.633,-0.378 -0.006,-0.426 -0.008,-0.851 -0.008,-1.276 0.168,0.128 0.391,-0.076 0.271,-0.272 -0.087,-0.142 -0.177,-0.283 -0.265,-0.424 0.012,-0.975 0.031,-1.951 0.037,-2.924 0.004,-0.591 0.271,-1.82 -0.24,-2.262 -0.066,-0.057 -0.176,-0.046 -0.24,0.004 -0.031,0.023 -0.01,0.015 -0.041,0.039 -0.086,0.066 -0.033,0.145 0.021,0.229 l 0.047,0.074 c 0.004,0.009 -0.039,0.046 -0.031,0.053 -0.055,0.102 -0.084,0.25 -0.035,0.415 -0.016,0.303 -0.041,0.612 -0.057,0.914 -0.027,0.604 -0.059,1.21 -0.082,1.815 -0.008,0.195 -0.018,0.393 -0.025,0.59 -3.461,-5.565 -7.041,-10.963 -10.051,-16.824 -0.24,-0.47 -0.959,-0.179 -0.762,0.322 0.072,0.184 0.145,0.368 0.217,0.552 0.029,0.078 0.082,0.126 0.141,0.16 2.912,5.78 6.271,11.75 10.416,16.743 -0.018,0.421 -0.041,0.842 -0.062,1.261 -1.266,-1.185 -2.506,-2.455 -3.859,-3.509 -0.334,-0.26 -0.789,0.208 -0.52,0.537 1.273,1.545 2.962,2.885 4.495,4.161"/></g></a><a id="a190" xlink:href="/step1" target="_blank"><g id="g188"><path style="fill:#f7c969" id="path178" d="M 77.043,93.089 C 82.877,86.266 90.939,82.036 99.83,82.036 h 61.789 V 44.633 H 99.83 c -19.381,0 -37.465,8.098 -50.922,22.8 -3.742,4.089 -6.99,8.558 -9.722,13.32 z"/><path style="fill:#ffffff" id="path180" d="m 116.883,64.456 c 0,5.576 -4.52,10.098 -10.098,10.098 -5.576,0 -10.097,-4.521 -10.097,-10.098 0,-5.577 4.521,-10.099 10.097,-10.099 5.578,0 10.098,4.522 10.098,10.099"/><text y="69.68541" x="102.75751" style="font-size:14px;font-family:OctinStencilRg-Bold" id="text182" font-size="14"><tspan id="tspan4674" style="font-style:normal;font-variant:normal;font-weight:bold;font-stretch:normal;font-size:14px;font-family:sans-serif;-inkscape-font-specification:'sans-serif, Bold';font-variant-ligatures:normal;font-variant-caps:normal;font-variant-numeric:normal;font-feature-settings:normal;text-align:start;writing-mode:lr-tb;text-anchor:start">1</tspan></text>
<path style="fill:#0c050d" id="path184" d="m 175.189,65.818 c 0.363,-0.118 0.283,-0.576 0.018,-0.737 -0.365,-0.221 -0.727,-0.447 -1.086,-0.674 0.197,-0.073 0.143,-0.37 -0.086,-0.372 -0.168,-0.003 -0.334,-0.002 -0.5,-0.004 -0.818,-0.528 -1.635,-1.065 -2.455,-1.589 -0.498,-0.318 -1.395,-1.198 -2.043,-1.002 -0.082,0.025 -0.131,0.124 -0.123,0.205 0.005,0.039 0.008,0.02 0.012,0.058 0.01,0.108 0.105,0.108 0.205,0.108 h 0.088 c 0.01,0 0.018,0.054 0.027,0.052 0.057,0.1 0.168,0.204 0.334,0.25 0.248,0.173 0.494,0.359 0.742,0.533 0.496,0.345 0.994,0.693 1.492,1.036 0.162,0.11 0.324,0.225 0.486,0.335 -6.553,-0.037 -13.029,0.118 -19.591,-0.458 -0.528,-0.047 -0.663,0.717 -0.135,0.817 0.195,0.037 0.388,0.074 0.584,0.111 0.08,0.016 0.15,-0.003 0.209,-0.035 6.443,0.615 13.285,0.953 19.718,0.105 0.348,0.238 0.691,0.483 1.033,0.726 -1.676,0.439 -3.409,0.812 -5.025,1.396 -0.396,0.146 -0.244,0.779 0.178,0.726 1.987,-0.254 4.02,-0.969 5.918,-1.587"/><path style="fill:#0c050d" id="path186" d="m 64.463,76.795 c 0.33,-0.193 0.619,0.171 0.562,0.478 -0.076,0.418 -0.146,0.838 -0.214,1.258 0.187,-0.099 0.373,0.138 0.22,0.312 -0.107,0.127 -0.218,0.251 -0.328,0.376 -0.148,0.964 -0.287,1.93 -0.437,2.891 -0.092,0.585 -0.03,1.84 -0.606,2.194 -0.074,0.044 -0.181,0.016 -0.236,-0.043 -0.025,-0.029 -0.008,-0.019 -0.033,-0.046 -0.074,-0.08 -0.01,-0.149 0.058,-0.225 0.02,-0.021 0.037,-0.043 0.057,-0.063 0.006,-0.009 -0.029,-0.054 -0.022,-0.06 -0.037,-0.106 -0.042,-0.259 0.032,-0.415 0.035,-0.301 0.06,-0.607 0.093,-0.911 0.073,-0.599 0.139,-1.202 0.215,-1.803 0.024,-0.195 0.047,-0.391 0.071,-0.587 -4.319,4.929 -8.727,9.673 -12.649,14.969 -0.316,0.425 -0.976,0.021 -0.701,-0.44 0.102,-0.171 0.203,-0.341 0.303,-0.512 0.043,-0.069 0.103,-0.109 0.166,-0.134 3.812,-5.23 8.097,-10.575 12.998,-14.829 0.051,-0.419 0.096,-0.837 0.14,-1.255 -1.441,0.964 -2.869,2.016 -4.375,2.836 -0.373,0.202 -0.746,-0.334 -0.425,-0.613 1.506,-1.318 3.388,-2.367 5.111,-3.378"/></g></a></g></svg>