<?xml version="1.0" encoding="UTF-8" standalone="no"?>
<!-- Generator: Adobe Illustrator 15.0.0, SVG Export Plug-In . SVG Version: 6.00 Build 0)  -->

<svg
   xmlns:dc="http://purl.org/dc/elements/1.1/"
   xmlns:cc="http://creativecommons.org/ns#"
   xmlns:rdf="http://www.w3.org/1999/02/22-rdf-syntax-ns#"
   xmlns:svg="http://www.w3.org/2000/svg"
   xmlns="http://www.w3.org/2000/svg"
   xmlns:xlink="http://www.w3.org/1999/xlink"
   xmlns:sodipodi="http://sodipodi.sourceforge.net/DTD/sodipodi-0.dtd"
   xmlns:inkscape="http://www.inkscape.org/namespaces/inkscape"
   version="1.1"
   id="Layer_1"
   x="0px"
   y="0px"
   width="324px"
   height="259px"
   viewBox="0 0 324 259"
   enable-background="new 0 0 324 259"
   xml:space="preserve"
   sodipodi:docname="circulo.svg"
   inkscape:version="0.92.1 r"><metadata
     id="metadata197"><rdf:RDF><cc:Work
         rdf:about=""><dc:format>image/svg+xml</dc:format><dc:type
           rdf:resource="http://purl.org/dc/dcmitype/StillImage" /></cc:Work></rdf:RDF></metadata><defs
     id="defs195" /><sodipodi:namedview
     pagecolor="#ffffff"
     bordercolor="#666666"
     borderopacity="1"
     objecttolerance="10"
     gridtolerance="10"
     guidetolerance="10"
     inkscape:pageopacity="0"
     inkscape:pageshadow="2"
     inkscape:window-width="3200"
     inkscape:window-height="1746"
     id="namedview193"
     showgrid="false"
     inkscape:zoom="3.6447876"
     inkscape:cx="1.9542736"
     inkscape:cy="114.02274"
     inkscape:window-x="0"
     inkscape:window-y="54"
     inkscape:window-maximized="1"
     inkscape:current-layer="g128" /><g
     id="g10"><rect
       x="157.982"
       y="18.664"
       fill="#F7941E"
       width="75.135"
       height="12.929"
       id="rect2" /><text
       transform="matrix(1 0 0 1 163.1191 28.9072)"
       fill="#FFFFFF"
       font-family="'OctinStencilRg-Regular'"
       font-size="9.5256"
       id="text4"
       style="-inkscape-font-specification:'Octin Stencil, Normal';font-family:'Octin Stencil';font-weight:normal;font-style:normal;font-stretch:normal;font-variant:normal;font-size:9.5255998px;text-anchor:start;text-align:start;writing-mode:lr;font-variant-ligatures:normal;font-variant-caps:normal;font-variant-numeric:normal;font-feature-settings:normal;">MY COMMUNITIES</text>
<rect
       x="106.271"
       y="14.809"
       fill="#F7941E"
       width="47.918"
       height="18.826"
       id="rect6" /><text
       transform="matrix(1 0 0 1 110.2578 30.6704)"
       fill="#FFFFFF"
       font-family="'OctinStencilRg-Black'"
       font-size="17.73"
       id="text8"
       style="-inkscape-font-specification:'Octin Stencil, Normal';font-family:'Octin Stencil';font-weight:normal;font-style:normal;font-stretch:normal;font-variant:normal;font-size:17.72933324px;text-anchor:start;text-align:start;writing-mode:lr;font-variant-ligatures:normal;font-variant-caps:normal;font-variant-numeric:normal;font-feature-settings:normal;">WHO</text>
</g><g
     id="g44"><rect
       x="223.121"
       y="216.532"
       fill="#27AAE1"
       width="65.156"
       height="12.93"
       id="rect12" /><rect
       x="223.121"
       y="228.641"
       fill="#27AAE1"
       width="83.301"
       height="12.931"
       id="rect14" /><text
       transform="translate(228.2578,226.7773)"
       id="text26"
       style="font-style:normal;font-variant:normal;font-weight:normal;font-stretch:normal;font-size:8px;font-family:'Octin Stencil';-inkscape-font-specification:'Octin Stencil, Normal';font-variant-ligatures:normal;font-variant-caps:normal;font-variant-numeric:normal;font-feature-settings:normal;text-align:start;writing-mode:lr-tb;text-anchor:start"><tspan
         x="0"
         y="0"
         font-size="9.5256"
         id="tspan16"
         style="font-style:normal;font-variant:normal;font-weight:normal;font-stretch:normal;font-size:8px;font-family:'Octin Stencil';-inkscape-font-specification:'Octin Stencil, Normal';font-variant-ligatures:normal;font-variant-caps:normal;font-variant-numeric:normal;font-feature-settings:normal;text-align:start;writing-mode:lr-tb;text-anchor:start;fill:#ffffff">My StRategy, </tspan></text>
<text
       transform="translate(228.2578,238.208)"
       id="text38"
       style="font-style:normal;font-variant:normal;font-weight:normal;font-stretch:normal;font-size:8px;font-family:'Octin Stencil';-inkscape-font-specification:'Octin Stencil, Normal';font-variant-ligatures:normal;font-variant-caps:normal;font-variant-numeric:normal;font-feature-settings:normal;text-align:start;writing-mode:lr-tb;text-anchor:start"><tspan
         x="0"
         y="0"
         font-size="9.5256"
         id="tspan28"
         style="font-style:normal;font-variant:normal;font-weight:normal;font-stretch:normal;font-size:8px;font-family:'Octin Stencil';-inkscape-font-specification:'Octin Stencil, Normal';font-variant-ligatures:normal;font-variant-caps:normal;font-variant-numeric:normal;font-feature-settings:normal;text-align:start;writing-mode:lr-tb;text-anchor:start;fill:#ffffff">My SUSTAINABILITY</tspan></text>
<rect
       x="171.411"
       y="212.677"
       fill="#27AAE1"
       width="47.918"
       height="18.826"
       id="rect40" /><text
       transform="matrix(1 0 0 1 175.3955 228.5391)"
       fill="#FFFFFF"
       font-family="'OctinStencilRg-Black'"
       font-size="17.73"
       id="text42"
       style="-inkscape-font-specification:'Octin Stencil, Normal';font-family:'Octin Stencil';font-weight:normal;font-style:normal;font-stretch:normal;font-variant:normal;font-size:17.72933324px;text-anchor:start;text-align:start;writing-mode:lr;font-variant-ligatures:normal;font-variant-caps:normal;font-variant-numeric:normal;font-feature-settings:normal;">HOW</text>
</g><g
     opacity="0.3"
     id="g56"><g
       id="g54"><defs
         id="defs47"><rect
           id="SVGID_1_"
           x="33.702"
           y="78.16"
           width="131.705"
           height="45.945" /></defs><clipPath
         id="SVGID_2_"><use
           xlink:href="#SVGID_1_"
           overflow="visible"
           id="use49" /></clipPath><line
         clip-path="url(#SVGID_2_)"
         fill="none"
         stroke="#000000"
         stroke-width="4.506"
         stroke-linecap="round"
         stroke-miterlimit="10"
         x1="163.154"
         y1="121.853"
         x2="35.955"
         y2="80.413"
         id="line52" /></g></g><g
     opacity="0.3"
     id="g68"><g
       id="g66"><defs
         id="defs59"><rect
           id="SVGID_3_"
           x="160.001"
           y="77.658"
           width="133.551"
           height="46.447" /></defs><clipPath
         id="SVGID_4_"><use
           xlink:href="#SVGID_3_"
           overflow="visible"
           id="use61" /></clipPath><line
         clip-path="url(#SVGID_4_)"
         fill="none"
         stroke="#000000"
         stroke-width="4.506"
         stroke-linecap="round"
         stroke-miterlimit="10"
         x1="162.254"
         y1="121.853"
         x2="291.299"
         y2="79.911"
         id="line64" /></g></g><g
     opacity="0.3"
     id="g80"><g
       id="g78"><defs
         id="defs71"><rect
           id="SVGID_5_"
           x="159.86"
           y="119.458"
           width="4.788"
           height="83.649" /></defs><clipPath
         id="SVGID_6_"><use
           xlink:href="#SVGID_5_"
           overflow="visible"
           id="use73" /></clipPath><line
         clip-path="url(#SVGID_6_)"
         fill="none"
         stroke="#000000"
         stroke-width="4.787"
         stroke-linecap="round"
         stroke-miterlimit="10"
         x1="162.254"
         y1="121.853"
         x2="162.254"
         y2="200.714"
         id="line76" /></g></g><a
     xlink:href="/step-6"
     id="a90"><g
       id="g88"><path
         fill="#ED1A59"
         d="M76.125,94.21L38.508,81.954c-6.229,11.335-9.555,24.268-9.555,37.702c0,14.784,4.027,28.96,11.52,41.065    l38.435-12.492c-6.906-6.906-11.297-17.149-11.297-28.573C67.611,109.853,70.844,100.913,76.125,94.21"
         id="path82" /><path
         fill="#FFFFFF"
         d="M57.98,121.676c0,5.575-4.52,10.098-10.098,10.098c-5.576,0-10.097-4.522-10.097-10.098    c0-5.576,4.521-10.099,10.097-10.099C53.46,111.577,57.98,116.1,57.98,121.676"
         id="path84" /><text
         transform="matrix(1 0 0 1 43.7563 126.4346)"
         font-family="'OctinStencilRg-Bold'"
         font-size="14"
         id="text86"><tspan
           style="-inkscape-font-specification:'sans-serif, Bold';font-family:sans-serif;font-weight:bold;font-style:normal;font-stretch:normal;font-variant:normal;font-size:14px;text-anchor:start;text-align:start;writing-mode:lr;font-variant-ligatures:normal;font-variant-caps:normal;font-variant-numeric:normal;font-feature-settings:normal"
           id="tspan4684">6</tspan></text>
</g></a><g
     id="g128"><rect
       x="68.006"
       y="216.532"
       fill="#ED1A59"
       width="94.867"
       height="12.928"
       id="rect92" /><rect
       x="68.006"
       y="228.216"
       fill="#ED1A59"
       width="46.168"
       height="12.931"
       id="rect94" /><text
       transform="translate(73.1436,226.7764)"
       id="text104"
       style="font-style:normal;font-variant:normal;font-weight:normal;font-stretch:normal;font-size:8px;font-family:'Octin Stencil';-inkscape-font-specification:'Octin Stencil, Normal';font-variant-ligatures:normal;font-variant-caps:normal;font-variant-numeric:normal;font-feature-settings:normal;text-align:start;writing-mode:lr-tb;text-anchor:start"><tspan
         x="0"
         y="0"
         font-size="9.5256"
         id="tspan96"
         style="font-style:normal;font-variant:normal;font-weight:normal;font-stretch:normal;font-size:8px;font-family:'Octin Stencil';-inkscape-font-specification:'Octin Stencil, Normal';font-variant-ligatures:normal;font-variant-caps:normal;font-variant-numeric:normal;font-feature-settings:normal;text-align:start;writing-mode:lr-tb;text-anchor:start;fill:#ffffff">My vision, My iMpact,</tspan></text>
<text
       transform="translate(73.1436,238.207)"
       id="text116"
       style="font-style:normal;font-variant:normal;font-weight:normal;font-stretch:normal;font-size:8px;font-family:'Octin Stencil';-inkscape-font-specification:'Octin Stencil, Normal';font-variant-ligatures:normal;font-variant-caps:normal;font-variant-numeric:normal;font-feature-settings:normal;text-align:start;writing-mode:lr-tb;text-anchor:start"><tspan
         x="0"
         y="0"
         font-size="9.5256"
         id="tspan106"
         style="font-style:normal;font-variant:normal;font-weight:normal;font-stretch:normal;font-size:8px;font-family:'Octin Stencil';-inkscape-font-specification:'Octin Stencil, Normal';font-variant-ligatures:normal;font-variant-caps:normal;font-variant-numeric:normal;font-feature-settings:normal;text-align:start;writing-mode:lr-tb;text-anchor:start;fill:#ffffff">My Story</tspan></text>
<rect
       x="16.297"
       y="212.677"
       fill="#ED1A59"
       width="47.919"
       height="18.826"
       id="rect118" /><text
       transform="translate(21.6416,228.5391)"
       id="text126"
       style="font-style:normal;font-variant:normal;font-weight:normal;font-stretch:normal;font-size:17.33333333px;font-family:'Octin Stencil';-inkscape-font-specification:'Octin Stencil, Normal';font-variant-ligatures:normal;font-variant-caps:normal;font-variant-numeric:normal;font-feature-settings:normal;text-align:start;writing-mode:lr;text-anchor:start;"><tspan
         x="0"
         y="0"
         font-size="17.73"
         id="tspan120"
         style="font-style:normal;font-variant:normal;font-weight:normal;font-stretch:normal;font-size:17.33333333px;font-family:'Octin Stencil';-inkscape-font-specification:'Octin Stencil, Normal';font-variant-ligatures:normal;font-variant-caps:normal;font-variant-numeric:normal;font-feature-settings:normal;text-align:start;writing-mode:lr;text-anchor:start;fill:#ffffff;">WHY</tspan></text>
</g><a
     xlink:href="/step5"
     id="a140"><g
       id="g138"><path
         fill="#79439A"
         d="M80.018,149.29l-38.801,12.611c2.272,3.521,4.838,6.859,7.692,9.979    c13.457,14.703,31.541,22.799,50.921,22.799h61.749v-37.402H99.83C92.364,157.276,85.487,154.286,80.018,149.29"
         id="path130" /><path
         fill="#FFFFFF"
         d="M121.09,176.054c0,5.576-4.52,10.098-10.098,10.098c-5.576,0-10.097-4.521-10.097-10.098    s4.521-10.098,10.097-10.098C116.57,165.956,121.09,170.478,121.09,176.054"
         id="path132" /><text
         transform="matrix(1 0 0 1 106.8682 181.8184)"
         font-family="'OctinStencilRg-Bold'"
         font-size="14"
         id="text134"><tspan
           style="-inkscape-font-specification:'sans-serif, Bold';font-family:sans-serif;font-weight:bold;font-style:normal;font-stretch:normal;font-variant:normal;font-size:14px;text-anchor:start;text-align:start;writing-mode:lr;font-variant-ligatures:normal;font-variant-caps:normal;font-variant-numeric:normal;font-feature-settings:normal"
           id="tspan4682">5</tspan></text>
<path
         fill="#0C050D"
         d="M54.035,147.042c-0.141-0.354,0.266-0.584,0.559-0.479c0.402,0.14,0.804,0.276,1.209,0.411    c-0.069-0.201,0.195-0.346,0.341-0.17c0.11,0.127,0.213,0.256,0.321,0.384c0.927,0.298,1.859,0.589,2.785,0.89    c0.562,0.184,1.812,0.319,2.07,0.945c0.031,0.078-0.012,0.18-0.08,0.227c-0.033,0.02-0.018,0.004-0.051,0.025    c-0.09,0.061-0.148-0.016-0.211-0.094c-0.017-0.023-0.037-0.045-0.054-0.066c-0.008-0.008-0.057,0.021-0.061,0.012    c-0.113,0.021-0.264,0.002-0.406-0.098c-0.291-0.082-0.592-0.154-0.885-0.236c-0.58-0.164-1.166-0.326-1.746-0.496    c-0.189-0.055-0.379-0.107-0.568-0.162c4.183,5.043,8.172,10.146,12.781,14.857c0.369,0.377-0.135,0.965-0.547,0.621l-0.457-0.381    c-0.062-0.053-0.092-0.119-0.105-0.184c-4.563-4.592-9.163-9.668-12.588-15.18c-0.405-0.115-0.811-0.227-1.217-0.338    c0.724,1.576,1.537,3.152,2.109,4.77c0.141,0.4-0.447,0.684-0.674,0.324C55.498,150.927,54.76,148.901,54.035,147.042"
         id="path136" /></g></a><a
     xlink:href="/step-4"
     id="a152"><g
       id="g150"><path
         fill="#0082BE"
         d="M245.928,150.089c-5.314,4.516-11.848,7.188-18.908,7.188h-64.09v37.402h64.09    c19.381,0,37.465-8.096,50.922-22.799c2.602-2.844,4.963-5.873,7.082-9.055L245.928,150.089z"
         id="path142" /><path
         fill="#FFFFFF"
         d="M225.434,176.054c0,5.576-4.521,10.098-10.098,10.098c-5.578,0-10.098-4.521-10.098-10.098    s4.52-10.098,10.098-10.098C220.912,165.956,225.434,170.478,225.434,176.054"
         id="path144" /><text
         transform="matrix(1 0 0 1 211.3086 181.8184)"
         font-family="'OctinStencilRg-Bold'"
         font-size="14"
         id="text146"><tspan
           style="-inkscape-font-specification:'sans-serif, Bold';font-family:sans-serif;font-weight:bold;font-style:normal;font-stretch:normal;font-variant:normal;font-size:14px;text-anchor:start;text-align:start;writing-mode:lr;font-variant-ligatures:normal;font-variant-caps:normal;font-variant-numeric:normal;font-feature-settings:normal"
           id="tspan4680">4</tspan></text>
<path
         fill="#0C050D"
         d="M149.545,177.903c-0.342,0.174-0.191,0.615,0.096,0.732c0.394,0.162,0.785,0.328,1.175,0.497    c-0.183,0.104-0.084,0.39,0.143,0.354c0.166-0.022,0.33-0.049,0.494-0.072c0.891,0.396,1.78,0.799,2.67,1.191    c0.543,0.238,1.565,0.969,2.174,0.674c0.076-0.037,0.111-0.143,0.092-0.221c-0.012-0.037-0.012-0.016-0.022-0.053    c-0.027-0.105-0.121-0.088-0.218-0.072c-0.03,0.006-0.059,0.01-0.086,0.014c-0.01,0-0.028-0.053-0.038-0.051    c-0.07-0.088-0.195-0.176-0.367-0.197c-0.271-0.131-0.545-0.277-0.818-0.412c-0.541-0.264-1.086-0.533-1.633-0.793    c-0.178-0.086-0.353-0.172-0.531-0.258c6.48-0.975,12.854-2.125,19.428-2.566c0.529-0.038,0.543-0.811,0.008-0.831    c-0.199-0.005-0.396-0.011-0.594-0.019c-0.082-0.002-0.148,0.027-0.203,0.068c-6.461,0.385-13.271,1.107-19.499,2.936    c-0.38-0.184-0.757-0.371-1.132-0.559c1.588-0.693,3.246-1.328,4.75-2.152c0.369-0.205,0.121-0.809-0.287-0.691    C153.225,175.981,151.324,177.001,149.545,177.903"
         id="path148" /></g></a><a
     xlink:href="/step-3"
     id="a164"><g
       id="g162"><path
         fill="#27AAE1"
         d="M247.096,149.048l38.693,12.605c7.869-12.309,12.107-26.832,12.107-41.996    c0-13.562-3.389-26.609-9.73-38.018l-37.701,12.253c5.434,6.738,8.773,15.802,8.773,25.765    C259.238,131.54,254.488,142.147,247.096,149.048"
         id="path154" /><path
         fill="#FFFFFF"
         d="M287.701,121.676c0,5.575-4.52,10.098-10.098,10.098c-5.576,0-10.098-4.522-10.098-10.098    c0-5.576,4.521-10.099,10.098-10.099C283.182,111.577,287.701,116.1,287.701,121.676"
         id="path156" /><text
         transform="matrix(1 0 0 1 273.9023 126.0703)"
         font-family="'OctinStencilRg-Bold'"
         font-size="14"
         id="text158"><tspan
           style="-inkscape-font-specification:'sans-serif, Bold';font-family:sans-serif;font-weight:bold;font-style:normal;font-stretch:normal;font-variant:normal;font-size:14px;text-anchor:start;text-align:start;writing-mode:lr;font-variant-ligatures:normal;font-variant-caps:normal;font-variant-numeric:normal;font-feature-settings:normal"
           id="tspan4678">3</tspan></text>
<path
         fill="#0C050D"
         d="M255.035,168.21c-0.141,0.357,0.266,0.586,0.559,0.48c0.402-0.141,0.805-0.277,1.209-0.41    c-0.068,0.2,0.195,0.346,0.342,0.168c0.109-0.127,0.213-0.256,0.32-0.383c0.928-0.299,1.859-0.588,2.785-0.891    c0.562-0.182,1.812-0.318,2.07-0.943c0.031-0.08-0.012-0.182-0.08-0.227c-0.033-0.021-0.018-0.004-0.051-0.024    c-0.09-0.062-0.148,0.013-0.211,0.091c-0.018,0.023-0.037,0.045-0.055,0.068c-0.008,0.007-0.057-0.021-0.061-0.014    c-0.113-0.02-0.264,0-0.406,0.098c-0.291,0.082-0.592,0.154-0.885,0.236c-0.58,0.166-1.166,0.328-1.746,0.496l-0.568,0.164    c4.184-5.045,8.172-10.148,12.781-14.857c0.369-0.379-0.135-0.967-0.547-0.623l-0.457,0.382c-0.062,0.052-0.092,0.118-0.105,0.185    c-4.562,4.592-9.162,9.666-12.588,15.178c-0.404,0.117-0.811,0.227-1.217,0.338c0.725-1.574,1.537-3.152,2.109-4.77    c0.141-0.398-0.447-0.684-0.674-0.322C256.498,164.325,255.76,166.351,255.035,168.21"
         id="path160" /></g></a><a
     xlink:href="/step-2"
     id="a176"><g
       id="g174"><path
         fill="#F7941E"
         d="M249.529,92.776l37.957-12.338c-2.695-4.645-5.887-9.007-9.545-13.006    C264.484,52.731,246.4,44.634,227.02,44.634H162.97v37.403h64.049C235.773,82.037,243.717,86.138,249.529,92.776"
         id="path166" /><path
         fill="#FFFFFF"
         d="M227.957,64.456c0,5.576-4.521,10.098-10.098,10.098c-5.576,0-10.098-4.521-10.098-10.098    c0-5.577,4.521-10.099,10.098-10.099C223.437,54.357,227.957,58.879,227.957,64.456"
         id="path168" /><text
         transform="matrix(1 0 0 1 214.2061 69.7197)"
         font-family="'OctinStencilRg-Bold'"
         font-size="14"
         id="text170"><tspan
           style="-inkscape-font-specification:'sans-serif, Bold';font-family:sans-serif;font-weight:bold;font-style:normal;font-stretch:normal;font-variant:normal;font-size:14px;text-anchor:start;text-align:start;writing-mode:lr;font-variant-ligatures:normal;font-variant-caps:normal;font-variant-numeric:normal;font-feature-settings:normal"
           id="tspan4676">2</tspan></text>
<path
         fill="#0C050D"
         d="M273.189,98.012c0.295,0.245,0.639-0.066,0.633-0.378c-0.006-0.426-0.008-0.851-0.008-1.276    c0.168,0.128,0.391-0.076,0.271-0.272c-0.087-0.142-0.177-0.283-0.265-0.424c0.012-0.975,0.031-1.951,0.037-2.924    c0.004-0.591,0.271-1.82-0.24-2.262c-0.066-0.057-0.176-0.046-0.24,0.004c-0.031,0.023-0.01,0.015-0.041,0.039    c-0.086,0.066-0.033,0.145,0.021,0.229l0.047,0.074c0.004,0.009-0.039,0.046-0.031,0.053c-0.055,0.102-0.084,0.25-0.035,0.415    c-0.016,0.303-0.041,0.612-0.057,0.914c-0.027,0.604-0.059,1.21-0.082,1.815c-0.008,0.195-0.018,0.393-0.025,0.59    c-3.461-5.565-7.041-10.963-10.051-16.824c-0.24-0.47-0.959-0.179-0.762,0.322c0.072,0.184,0.145,0.368,0.217,0.552    c0.029,0.078,0.082,0.126,0.141,0.16c2.912,5.78,6.271,11.75,10.416,16.743c-0.018,0.421-0.041,0.842-0.062,1.261    c-1.266-1.185-2.506-2.455-3.859-3.509c-0.334-0.26-0.789,0.208-0.52,0.537C269.967,95.396,271.656,96.736,273.189,98.012"
         id="path172" /></g></a><a
     xlink:href="/step-1"
     id="a190"><g
       id="g188"><path
         fill="#F7C969"
         d="M77.043,93.089c5.834-6.823,13.896-11.053,22.787-11.053h61.789V44.633H99.83    c-19.381,0-37.465,8.098-50.922,22.8c-3.742,4.089-6.99,8.558-9.722,13.32L77.043,93.089z"
         id="path178" /><path
         fill="#FFFFFF"
         d="M116.883,64.456c0,5.576-4.52,10.098-10.098,10.098c-5.576,0-10.097-4.521-10.097-10.098    c0-5.577,4.521-10.099,10.097-10.099C112.363,54.357,116.883,58.879,116.883,64.456"
         id="path180" /><text
         font-size="14"
         id="text182"
         style="font-size:14px;font-family:OctinStencilRg-Bold"
         x="102.75751"
         y="69.68541"><tspan
           style="font-style:normal;font-variant:normal;font-weight:bold;font-stretch:normal;font-size:14px;font-family:sans-serif;-inkscape-font-specification:'sans-serif, Bold';font-variant-ligatures:normal;font-variant-caps:normal;font-variant-numeric:normal;font-feature-settings:normal;text-align:start;writing-mode:lr-tb;text-anchor:start"
           id="tspan4674">1</tspan></text>
<path
         fill="#0C050D"
         d="M175.189,65.818c0.363-0.118,0.283-0.576,0.018-0.737c-0.365-0.221-0.727-0.447-1.086-0.674    c0.197-0.073,0.143-0.37-0.086-0.372c-0.168-0.003-0.334-0.002-0.5-0.004c-0.818-0.528-1.635-1.065-2.455-1.589    c-0.498-0.318-1.395-1.198-2.043-1.002c-0.082,0.025-0.131,0.124-0.123,0.205c0.005,0.039,0.008,0.02,0.012,0.058    c0.01,0.108,0.105,0.108,0.205,0.108h0.088c0.01,0,0.018,0.054,0.027,0.052c0.057,0.1,0.168,0.204,0.334,0.25    c0.248,0.173,0.494,0.359,0.742,0.533c0.496,0.345,0.994,0.693,1.492,1.036c0.162,0.11,0.324,0.225,0.486,0.335    c-6.553-0.037-13.029,0.118-19.591-0.458c-0.528-0.047-0.663,0.717-0.135,0.817c0.195,0.037,0.388,0.074,0.584,0.111    c0.08,0.016,0.15-0.003,0.209-0.035c6.443,0.615,13.285,0.953,19.718,0.105c0.348,0.238,0.691,0.483,1.033,0.726    c-1.676,0.439-3.409,0.812-5.025,1.396c-0.396,0.146-0.244,0.779,0.178,0.726C171.258,67.151,173.291,66.436,175.189,65.818"
         id="path184" /><path
         fill="#0C050D"
         d="M64.463,76.795c0.33-0.193,0.619,0.171,0.562,0.478c-0.076,0.418-0.146,0.838-0.214,1.258    c0.187-0.099,0.373,0.138,0.22,0.312c-0.107,0.127-0.218,0.251-0.328,0.376c-0.148,0.964-0.287,1.93-0.437,2.891    c-0.092,0.585-0.03,1.84-0.606,2.194c-0.074,0.044-0.181,0.016-0.236-0.043c-0.025-0.029-0.008-0.019-0.033-0.046    c-0.074-0.08-0.01-0.149,0.058-0.225c0.02-0.021,0.037-0.043,0.057-0.063c0.006-0.009-0.029-0.054-0.022-0.06    c-0.037-0.106-0.042-0.259,0.032-0.415c0.035-0.301,0.06-0.607,0.093-0.911c0.073-0.599,0.139-1.202,0.215-1.803    c0.024-0.195,0.047-0.391,0.071-0.587c-4.319,4.929-8.727,9.673-12.649,14.969c-0.316,0.425-0.976,0.021-0.701-0.44    c0.102-0.171,0.203-0.341,0.303-0.512c0.043-0.069,0.103-0.109,0.166-0.134c3.812-5.23,8.097-10.575,12.998-14.829    c0.051-0.419,0.096-0.837,0.14-1.255c-1.441,0.964-2.869,2.016-4.375,2.836c-0.373,0.202-0.746-0.334-0.425-0.613    C60.858,78.855,62.74,77.806,64.463,76.795"
         id="path186" /></g></a></svg>