<?xml version="1.0" encoding="UTF-8" standalone="no"?>
<!-- Generator: Adobe Illustrator 15.0.0, SVG Export Plug-In . SVG Version: 6.00 Build 0)  -->

<svg
   xmlns:dc="http://purl.org/dc/elements/1.1/"
   xmlns:cc="http://creativecommons.org/ns#"
   xmlns:rdf="http://www.w3.org/1999/02/22-rdf-syntax-ns#"
   xmlns:svg="http://www.w3.org/2000/svg"
   xmlns="http://www.w3.org/2000/svg"
   xmlns:sodipodi="http://sodipodi.sourceforge.net/DTD/sodipodi-0.dtd"
   xmlns:inkscape="http://www.inkscape.org/namespaces/inkscape"
   version="1.1"
   id="Capa_1"
   x="0px"
   y="0px"
   width="212.348px"
   height="125.076px"
   viewBox="0 0 212.348 125.076"
   enable-background="new 0 0 212.348 125.076"
   xml:space="preserve"
   sodipodi:docname="ideacamp-roadbook.svg"
   inkscape:version="0.92.1 r"><metadata
     id="metadata141"><rdf:RDF><cc:Work
         rdf:about=""><dc:format>image/svg+xml</dc:format><dc:type
           rdf:resource="http://purl.org/dc/dcmitype/StillImage" /></cc:Work></rdf:RDF></metadata><defs
     id="defs139" /><sodipodi:namedview
     pagecolor="#ffffff"
     bordercolor="#666666"
     borderopacity="1"
     objecttolerance="10"
     gridtolerance="10"
     guidetolerance="10"
     inkscape:pageopacity="0"
     inkscape:pageshadow="2"
     inkscape:window-width="1880"
     inkscape:window-height="808"
     id="namedview137"
     showgrid="false"
     inkscape:zoom="2.6684129"
     inkscape:cx="97.92576"
     inkscape:cy="50.582312"
     inkscape:window-x="544"
     inkscape:window-y="176"
     inkscape:window-maximized="0"
     inkscape:current-layer="Capa_1" /><rect
     x="1.868"
     y="30.693"
     fill="#FFFFFF"
     width="43.236"
     height="72.06"
     id="rect2" /><g
     id="g84"><g
       id="g14"><path
         style="fill:#ffffff"
         inkscape:connector-curvature="0"
         id="path6"
         d="m 55.256,33.889 h 3.4 V 58.16 h -3.4 z" /><path
         style="fill:#ffffff"
         inkscape:connector-curvature="0"
         id="path8"
         d="m 71.31,40.352 c 4.021,0 5.363,2.75 5.363,2.75 h 0.066 c 0,0 -0.066,-0.517 -0.066,-1.169 v -8.044 h 3.334 V 58.16 h -3.162 v -1.649 c 0,-0.688 0.033,-1.168 0.033,-1.168 H 76.81 c 0,0 -1.41,3.23 -5.707,3.23 -4.709,0 -7.666,-3.714 -7.666,-9.11 0,-5.535 3.265,-9.111 7.873,-9.111 z m 0.448,15.333 c 2.578,0 5.02,-1.821 5.02,-6.257 0,-3.095 -1.617,-6.188 -4.916,-6.188 -2.752,0 -5.02,2.27 -5.02,6.222 0,3.782 2.026,6.223 4.916,6.223 z" /><path
         style="fill:#ffffff"
         inkscape:connector-curvature="0"
         id="path10"
         d="m 92.73,40.352 c 4.916,0 7.529,3.645 7.529,8.146 0,0.447 -0.104,1.443 -0.104,1.443 H 87.47 c 0.172,3.816 2.889,5.741 5.98,5.741 2.99,0 5.156,-2.027 5.156,-2.027 l 1.375,2.44 c 0,0 -2.578,2.476 -6.738,2.476 -5.467,0 -9.213,-3.954 -9.213,-9.11 0.002,-5.533 3.749,-9.109 8.7,-9.109 z m 4.125,7.082 c -0.104,-2.991 -1.959,-4.436 -4.193,-4.436 -2.545,0 -4.605,1.582 -5.088,4.436 z" /><path
         style="fill:#ffffff"
         inkscape:connector-curvature="0"
         id="path12"
         d="m 113.395,47.297 h 0.756 v -0.311 c 0,-2.854 -1.615,-3.815 -3.814,-3.815 -2.684,0 -4.85,1.686 -4.85,1.686 l -1.375,-2.44 c 0,0 2.51,-2.062 6.499,-2.062 4.4,0 6.875,2.406 6.875,6.808 v 11.001 h -3.094 v -1.649 c 0,-0.791 0.068,-1.375 0.068,-1.375 h -0.068 c 0,0 -1.408,3.438 -5.568,3.438 -2.993,0 -5.915,-1.822 -5.915,-5.294 -0.002,-5.747 7.564,-5.987 10.486,-5.987 z m -3.852,8.594 c 2.818,0 4.643,-2.957 4.643,-5.535 v -0.55 h -0.861 c -2.51,0 -7.048,0.172 -7.048,3.3 0,1.41 1.102,2.785 3.266,2.785 z" /></g><g
       id="g24"><path
         style="fill:#ffffff"
         inkscape:connector-curvature="0"
         id="path16"
         d="m 133.887,33.683 c 5.707,0 8.596,3.024 8.596,3.024 l -0.895,1.102 c 0,0 -2.855,-2.716 -7.666,-2.716 -5.914,0 -10.416,4.641 -10.416,10.863 0,6.258 4.469,11.207 10.52,11.207 5.156,0 8.146,-3.267 8.146,-3.267 l 0.928,1.031 c 0,0 -3.23,3.645 -9.074,3.645 -7.014,0 -12.066,-5.639 -12.066,-12.617 -0.005,-6.978 5.154,-12.272 11.927,-12.272 z" /><path
         style="fill:#ffffff"
         inkscape:connector-curvature="0"
         id="path18"
         d="m 157.369,47.675 h 1.137 v -0.584 c 0,-3.816 -1.959,-5.122 -4.711,-5.122 -2.99,0 -4.916,1.649 -4.916,1.649 l -0.824,-1.169 c 0,0 2.062,-1.892 5.811,-1.892 3.953,0 6.084,2.2 6.084,6.498 v 11.104 h -1.439 v -2.27 c 0,-0.929 0.137,-1.547 0.137,-1.547 h -0.066 c 0.035,0 -1.547,4.229 -6.018,4.229 -2.783,0 -5.844,-1.548 -5.844,-4.985 -0.005,-5.842 7.591,-5.911 10.649,-5.911 z m -4.742,9.557 c 3.748,0 5.879,-3.885 5.879,-7.288 v -0.928 h -1.102 c -2.924,0 -9.182,0 -9.182,4.469 0.005,1.822 1.481,3.747 4.405,3.747 z" /><path
         style="fill:#ffffff"
         inkscape:connector-curvature="0"
         id="path20"
         d="m 165.762,40.971 h 1.441 v 3.024 c 0,0.791 -0.137,1.409 -0.137,1.409 h 0.066 c 0.855,-2.578 3.918,-4.848 6.602,-4.848 3.438,0 5.057,1.616 5.434,4.675 h 0.068 c 0.961,-2.405 3.574,-4.675 6.529,-4.675 4.436,0 5.74,2.612 5.74,6.704 v 10.897 h -1.441 V 47.778 c 0,-3.229 -0.652,-5.878 -4.299,-5.878 -2.854,0 -5.295,2.544 -6.051,5.227 -0.238,0.791 -0.346,1.649 -0.346,2.646 v 8.389 h -1.441 V 47.778 c 0,-2.956 -0.414,-5.878 -4.193,-5.878 -3.061,0 -5.465,2.683 -6.256,5.535 -0.207,0.723 -0.275,1.514 -0.275,2.338 v 8.389 h -1.441 z" /><path
         style="fill:#ffffff"
         inkscape:connector-curvature="0"
         id="path22"
         d="m 197.323,40.971 h 1.441 v 2.062 c 0,0.791 -0.104,1.375 -0.104,1.375 h 0.068 c 0,0 1.41,-3.852 6.188,-3.852 4.605,0 7.426,3.678 7.426,9.007 0,5.467 -3.195,9.008 -7.631,9.008 -4.473,0 -6.02,-3.886 -6.02,-3.886 h -0.066 c 0,0 0.137,0.619 0.137,1.514 v 8.835 h -1.441 V 40.971 Z m 7.394,16.192 c 3.367,0 6.119,-2.785 6.119,-7.599 0,-4.641 -2.479,-7.597 -5.982,-7.597 -3.162,0 -6.119,2.233 -6.119,7.632 0,3.817 2.129,7.564 5.982,7.564 z" /></g><g
       id="g82"><path
         style="fill:#ffffff"
         inkscape:connector-curvature="0"
         id="path26"
         d="m 57.773,23.038 c 1.357,0 2.043,0.733 2.043,0.733 l -0.299,0.413 c 0,0 -0.662,-0.63 -1.727,-0.63 -1.332,0.001 -2.285,1.034 -2.285,2.374 0,1.355 0.953,2.462 2.301,2.462 1.146,0 1.84,-0.759 1.84,-0.759 l 0.324,0.396 c 0,0 -0.775,0.881 -2.172,0.881 -1.681,-0.002 -2.873,-1.317 -2.873,-2.972 0.001,-1.647 1.227,-2.898 2.848,-2.898 z" /><path
         style="fill:#ffffff"
         inkscape:connector-curvature="0"
         id="path28"
         d="m 62.927,24.652 c 1.188,0 2.146,0.904 2.146,2.107 0,1.227 -0.959,2.146 -2.146,2.146 -1.188,0 -2.146,-0.921 -2.146,-2.146 -10e-4,-1.202 0.96,-2.107 2.146,-2.107 z m 0,3.762 c 0.871,0 1.582,-0.71 1.582,-1.654 0,-0.92 -0.711,-1.606 -1.582,-1.606 -0.871,0 -1.582,0.686 -1.582,1.605 0,0.945 0.711,1.655 1.582,1.655 z" /><path
         style="fill:#ffffff"
         inkscape:connector-curvature="0"
         id="path30"
         d="M 66.159,24.749 H 66.7 v 0.604 c 0,0.178 -0.016,0.323 -0.016,0.323 H 66.7 c 0.146,-0.372 0.662,-1.025 1.623,-1.025 1,0 1.355,0.573 1.355,1.574 v 2.583 H 69.13 v -2.436 c 0,-0.639 -0.1,-1.203 -0.879,-1.203 -0.695,0 -1.293,0.478 -1.479,1.146 -0.049,0.169 -0.062,0.354 -0.062,0.55 v 1.944 h -0.551 z" /><path
         style="fill:#ffffff"
         inkscape:connector-curvature="0"
         id="path32"
         d="m 71.008,24.749 h 0.541 v 0.604 c 0,0.178 -0.018,0.323 -0.018,0.323 h 0.018 c 0.145,-0.372 0.662,-1.025 1.623,-1.025 1,0 1.354,0.573 1.354,1.574 v 2.583 h -0.549 v -2.436 c 0,-0.639 -0.098,-1.203 -0.879,-1.203 -0.695,0 -1.293,0.478 -1.479,1.146 -0.049,0.169 -0.062,0.354 -0.062,0.55 v 1.944 h -0.549 z" /><path
         style="fill:#ffffff"
         inkscape:connector-curvature="0"
         id="path34"
         d="m 77.573,24.652 c 1.123,0 1.695,0.864 1.695,1.873 0,0.098 -0.016,0.282 -0.016,0.282 h -3.115 c 0.021,1.042 0.732,1.605 1.574,1.605 0.74,0 1.232,-0.492 1.232,-0.492 l 0.25,0.42 c 0,0 -0.59,0.564 -1.502,0.564 -1.209,0 -2.123,-0.872 -2.123,-2.123 0.003,-1.329 0.908,-2.129 2.005,-2.129 z m 1.14,1.703 c -0.031,-0.847 -0.551,-1.243 -1.154,-1.243 -0.678,0 -1.268,0.429 -1.396,1.243 z" /><path
         style="fill:#ffffff"
         inkscape:connector-curvature="0"
         id="path36"
         d="m 82.22,24.652 c 0.992,0 1.482,0.582 1.482,0.582 l -0.279,0.412 c 0,0 -0.453,-0.493 -1.188,-0.493 -0.887,0 -1.582,0.662 -1.582,1.632 0,0.951 0.703,1.63 1.602,1.63 0.82,0 1.299,-0.572 1.299,-0.572 l 0.25,0.428 c 0,0 -0.549,0.639 -1.582,0.639 -1.203,0 -2.131,-0.863 -2.131,-2.123 -10e-4,-1.255 0.934,-2.135 2.129,-2.135 z" /><path
         style="fill:#ffffff"
         inkscape:connector-curvature="0"
         id="path38"
         d="m 85.017,25.258 h -0.533 v -0.46 h 0.541 v -1.17 h 0.541 v 1.17 h 1.02 v 0.46 h -1.02 v 2.018 c 0,0.953 0.605,1.074 0.912,1.074 0.113,0 0.186,-0.017 0.186,-0.017 v 0.492 c 0,0 -0.088,0.017 -0.232,0.017 -0.467,0 -1.412,-0.153 -1.412,-1.51 z" /><path
         style="fill:#ffffff"
         inkscape:connector-curvature="0"
         id="path40"
         d="m 89.349,24.652 c 1.123,0 1.695,0.864 1.695,1.873 0,0.098 -0.018,0.282 -0.018,0.282 h -3.115 c 0.023,1.042 0.734,1.605 1.574,1.605 0.742,0 1.234,-0.492 1.234,-0.492 l 0.25,0.42 c 0,0 -0.59,0.564 -1.502,0.564 -1.209,0 -2.123,-0.872 -2.123,-2.123 0.003,-1.329 0.908,-2.129 2.005,-2.129 z m 1.138,1.703 c -0.031,-0.847 -0.549,-1.243 -1.152,-1.243 -0.68,0 -1.27,0.429 -1.396,1.243 z" /><path
         style="fill:#ffffff"
         inkscape:connector-curvature="0"
         id="path42"
         d="m 93.704,24.652 c 0.984,0 1.324,0.768 1.324,0.768 h 0.018 c 0,0 -0.018,-0.137 -0.018,-0.308 v -1.977 h 0.549 v 5.674 h -0.531 v -0.427 c 0,-0.179 0.018,-0.291 0.018,-0.291 h -0.018 c 0,0 -0.33,0.814 -1.396,0.814 -1.09,0 -1.768,-0.872 -1.768,-2.132 -0.001,-1.281 0.758,-2.121 1.822,-2.121 z m 0.026,3.762 c 0.678,0 1.314,-0.483 1.314,-1.64 0,-0.822 -0.42,-1.63 -1.291,-1.63 -0.721,0 -1.309,0.604 -1.309,1.63 0.002,1.002 0.526,1.64 1.286,1.64 z" /><path
         style="fill:#ffffff"
         inkscape:connector-curvature="0"
         id="path44"
         d="M 102.159,27.001 H 99.876 L 99.23,28.81 h -0.59 l 2.082,-5.674 h 0.598 l 2.082,5.674 h -0.588 z m -1.146,-3.277 c 0,0 -0.121,0.468 -0.219,0.734 l -0.76,2.059 h 1.953 l -0.741,-2.059 c -0.098,-0.268 -0.219,-0.734 -0.219,-0.734 z" /><path
         style="fill:#ffffff"
         inkscape:connector-curvature="0"
         id="path46"
         d="m 106.079,24.652 c 0.992,0 1.484,0.582 1.484,0.582 l -0.283,0.412 c 0,0 -0.451,-0.493 -1.185,-0.493 -0.891,0 -1.582,0.662 -1.582,1.632 0,0.951 0.701,1.63 1.598,1.63 0.824,0 1.298,-0.572 1.298,-0.572 l 0.252,0.428 c 0,0 -0.549,0.639 -1.582,0.639 -1.201,0 -2.133,-0.863 -2.133,-2.123 0,-1.255 0.939,-2.135 2.133,-2.135 z" /><path
         style="fill:#ffffff"
         inkscape:connector-curvature="0"
         id="path48"
         d="m 108.877,25.258 h -0.533 v -0.46 h 0.541 v -1.17 h 0.541 v 1.17 h 1.016 v 0.46 h -1.016 v 2.018 c 0,0.953 0.604,1.074 0.912,1.074 0.111,0 0.186,-0.017 0.186,-0.017 v 0.492 c 0,0 -0.09,0.017 -0.234,0.017 -0.469,0 -1.41,-0.153 -1.41,-1.51 z" /><path
         style="fill:#ffffff"
         inkscape:connector-curvature="0"
         id="path50"
         d="m 111.473,23.135 h 0.574 v 0.687 h -0.574 z m 0.016,1.614 h 0.549 v 4.061 h -0.549 z" /><path
         style="fill:#ffffff"
         inkscape:connector-curvature="0"
         id="path52"
         d="m 115.276,24.652 c 1.188,0 2.146,0.904 2.146,2.107 0,1.227 -0.961,2.146 -2.146,2.146 -1.188,0 -2.146,-0.921 -2.146,-2.146 -0.003,-1.202 0.958,-2.107 2.146,-2.107 z m 0,3.762 c 0.871,0 1.582,-0.71 1.582,-1.654 0,-0.92 -0.711,-1.606 -1.582,-1.606 -0.873,0 -1.582,0.688 -1.582,1.606 0,0.944 0.709,1.654 1.582,1.654 z" /><path
         style="fill:#ffffff"
         inkscape:connector-curvature="0"
         id="path54"
         d="m 118.496,24.749 h 0.541 v 0.604 c 0,0.178 -0.016,0.323 -0.016,0.323 h 0.016 c 0.146,-0.372 0.662,-1.025 1.623,-1.025 1,0 1.355,0.573 1.355,1.574 v 2.583 h -0.549 v -2.436 c 0,-0.639 -0.1,-1.203 -0.879,-1.203 -0.695,0 -1.293,0.478 -1.479,1.146 -0.049,0.169 -0.062,0.354 -0.062,0.55 v 1.944 h -0.551 v -4.06 z" /><path
         style="fill:#ffffff"
         inkscape:connector-curvature="0"
         id="path56"
         d="m 125.758,25.258 h -0.508 v -0.46 h 0.508 v -0.194 c 0,-1.34 0.943,-1.509 1.402,-1.509 0.154,0 0.25,0.016 0.25,0.016 v 0.492 c 0,0 -0.08,-0.017 -0.191,-0.017 -0.314,0 -0.912,0.113 -0.912,1.018 v 0.194 h 1.041 v 0.46 h -1.041 v 3.552 h -0.549 z" /><path
         style="fill:#ffffff"
         inkscape:connector-curvature="0"
         id="path58"
         d="m 130.033,24.652 c 1.188,0 2.146,0.904 2.146,2.107 0,1.227 -0.961,2.146 -2.146,2.146 -1.188,0 -2.146,-0.921 -2.146,-2.146 0,-1.202 0.961,-2.107 2.146,-2.107 z m 0,3.762 c 0.871,0 1.582,-0.71 1.582,-1.654 0,-0.92 -0.711,-1.606 -1.582,-1.606 -0.873,0 -1.582,0.688 -1.582,1.606 0,0.944 0.709,1.654 1.582,1.654 z" /><path
         style="fill:#ffffff"
         inkscape:connector-curvature="0"
         id="path60"
         d="m 133.268,24.749 h 0.541 v 0.72 c 0,0.178 -0.018,0.322 -0.018,0.322 h 0.018 c 0.193,-0.612 0.645,-1.082 1.283,-1.082 0.111,0 0.217,0.023 0.217,0.023 v 0.541 c 0,0 -0.096,-0.016 -0.201,-0.016 -0.574,0 -1,0.451 -1.178,1.049 -0.082,0.258 -0.113,0.533 -0.113,0.791 v 1.711 h -0.549 z" /><path
         style="fill:#ffffff"
         inkscape:connector-curvature="0"
         id="path62"
         d="m 138.592,25.258 h -0.533 v -0.46 h 0.541 v -1.17 h 0.541 v 1.17 h 1.016 v 0.46 h -1.016 v 2.018 c 0,0.953 0.604,1.074 0.912,1.074 0.113,0 0.186,-0.017 0.186,-0.017 v 0.492 c 0,0 -0.09,0.017 -0.23,0.017 -0.473,0 -1.412,-0.153 -1.412,-1.51 z" /><path
         style="fill:#ffffff"
         inkscape:connector-curvature="0"
         id="path64"
         d="m 141.203,23.135 h 0.551 v 2.194 c 0,0.187 -0.02,0.331 -0.02,0.331 h 0.02 c 0.15,-0.389 0.691,-1.01 1.611,-1.01 1.002,0 1.355,0.573 1.355,1.574 v 2.584 h -0.545 v -2.436 c 0,-0.639 -0.1,-1.203 -0.881,-1.203 -0.693,0 -1.291,0.478 -1.479,1.154 -0.051,0.161 -0.062,0.347 -0.062,0.541 v 1.944 h -0.551 v -5.673 z" /><path
         style="fill:#ffffff"
         inkscape:connector-curvature="0"
         id="path66"
         d="m 147.772,24.652 c 1.121,0 1.695,0.864 1.695,1.873 0,0.098 -0.018,0.282 -0.018,0.282 h -3.115 c 0.023,1.042 0.732,1.605 1.572,1.605 0.742,0 1.234,-0.492 1.234,-0.492 l 0.25,0.42 c 0,0 -0.59,0.564 -1.502,0.564 -1.211,0 -2.123,-0.872 -2.123,-2.123 0.005,-1.329 0.909,-2.129 2.007,-2.129 z m 1.136,1.703 c -0.031,-0.847 -0.549,-1.243 -1.152,-1.243 -0.68,0 -1.27,0.429 -1.396,1.243 z" /><path
         style="fill:#ffffff"
         inkscape:connector-curvature="0"
         id="path68"
         d="m 155.442,23.038 c 1.357,0 2.043,0.733 2.043,0.733 l -0.299,0.412 c 0,0 -0.662,-0.63 -1.727,-0.63 -1.332,0 -2.285,1.032 -2.285,2.373 0,1.355 0.953,2.462 2.301,2.462 1.145,0 1.84,-0.76 1.84,-0.76 l 0.324,0.396 c 0,0 -0.775,0.881 -2.172,0.881 -1.682,0 -2.873,-1.314 -2.873,-2.971 0,-1.645 1.227,-2.896 2.848,-2.896 z" /><path
         style="fill:#ffffff"
         inkscape:connector-curvature="0"
         id="path70"
         d="m 160.596,24.652 c 1.188,0 2.145,0.904 2.145,2.107 0,1.227 -0.959,2.146 -2.145,2.146 -1.188,0 -2.146,-0.921 -2.146,-2.146 -0.002,-1.202 0.958,-2.107 2.146,-2.107 z m 0,3.762 c 0.871,0 1.582,-0.71 1.582,-1.654 0,-0.92 -0.711,-1.606 -1.582,-1.606 -0.871,0 -1.582,0.688 -1.582,1.606 0,0.944 0.711,1.654 1.582,1.654 z" /><path
         style="fill:#ffffff"
         inkscape:connector-curvature="0"
         id="path72"
         d="m 163.821,24.749 h 0.541 v 0.604 c 0,0.178 -0.016,0.323 -0.016,0.323 h 0.016 c 0.193,-0.55 0.84,-1.025 1.469,-1.025 0.756,0 1.143,0.348 1.264,1.018 h 0.018 c 0.219,-0.549 0.809,-1.018 1.492,-1.018 0.984,0 1.35,0.573 1.35,1.574 v 2.583 h -0.549 v -2.444 c 0,-0.662 -0.139,-1.212 -0.883,-1.212 -0.619,0 -1.129,0.55 -1.281,1.146 -0.059,0.177 -0.07,0.37 -0.07,0.589 v 1.921 h -0.551 v -2.444 c 0,-0.613 -0.088,-1.212 -0.854,-1.212 -0.662,0 -1.162,0.573 -1.332,1.195 -0.041,0.169 -0.057,0.354 -0.057,0.541 v 1.921 h -0.551 v -4.06 z" /><path
         style="fill:#ffffff"
         inkscape:connector-curvature="0"
         id="path74"
         d="m 171.274,24.749 h 0.541 v 0.604 c 0,0.178 -0.018,0.323 -0.018,0.323 h 0.018 c 0.193,-0.55 0.838,-1.025 1.469,-1.025 0.75,0 1.141,0.348 1.262,1.018 h 0.018 c 0.219,-0.549 0.809,-1.018 1.492,-1.018 0.98,0 1.35,0.573 1.35,1.574 v 2.583 h -0.551 v -2.444 c 0,-0.662 -0.137,-1.212 -0.879,-1.212 -0.621,0 -1.131,0.55 -1.281,1.146 -0.059,0.177 -0.072,0.37 -0.072,0.589 v 1.921 h -0.549 v -2.444 c 0,-0.613 -0.09,-1.212 -0.854,-1.212 -0.662,0 -1.164,0.573 -1.332,1.195 -0.041,0.169 -0.059,0.354 -0.059,0.541 v 1.921 h -0.549 v -4.06 z" /><path
         style="fill:#ffffff"
         inkscape:connector-curvature="0"
         id="path76"
         d="m 180.573,24.652 c 1.188,0 2.146,0.904 2.146,2.107 0,1.227 -0.961,2.146 -2.146,2.146 -1.188,0 -2.146,-0.921 -2.146,-2.146 -0.001,-1.202 0.96,-2.107 2.146,-2.107 z m 0,3.762 c 0.871,0 1.582,-0.71 1.582,-1.654 0,-0.92 -0.711,-1.606 -1.582,-1.606 -0.873,0 -1.582,0.688 -1.582,1.606 -0.001,0.944 0.708,1.654 1.582,1.654 z" /><path
         style="fill:#ffffff"
         inkscape:connector-curvature="0"
         id="path78"
         d="m 183.799,24.749 h 0.541 v 0.604 c 0,0.178 -0.02,0.323 -0.02,0.323 h 0.02 c 0.145,-0.372 0.66,-1.025 1.621,-1.025 1.002,0 1.355,0.573 1.355,1.574 v 2.583 h -0.551 v -2.436 c 0,-0.639 -0.098,-1.203 -0.881,-1.203 -0.691,0 -1.291,0.478 -1.48,1.146 -0.049,0.169 -0.061,0.354 -0.061,0.55 v 1.944 h -0.549 z" /><path
         style="fill:#ffffff"
         inkscape:connector-curvature="0"
         id="path80"
         d="m 188.614,27.922 c 0,0 0.453,0.492 1.211,0.492 0.438,0 0.814,-0.218 0.814,-0.646 0,-0.889 -2.189,-0.67 -2.189,-1.994 0,-0.728 0.654,-1.122 1.391,-1.122 0.854,0 1.252,0.444 1.252,0.444 l -0.25,0.419 c 0,0 -0.35,-0.371 -1.02,-0.371 -0.412,0 -0.809,0.178 -0.809,0.629 0,0.896 2.188,0.654 2.188,1.994 0,0.662 -0.57,1.139 -1.389,1.139 -0.984,0 -1.502,-0.59 -1.502,-0.59 z" /></g></g><g
     id="g132"><path
       style="fill:#ed8727"
       inkscape:connector-curvature="0"
       id="path130"
       d="M 47.909,101.852 V 0 H 0.001 V 125.076 Z M 40.414,95.85 h 0.868 l 1.227,3.006 V 95.85 h 0.844 v 5.26 h -0.762 l -1.332,-3.276 v 3.229 h -0.845 z m -4.309,2.615 c 0,-1.826 0.545,-2.709 1.664,-2.709 1.665,0 1.665,1.961 1.665,2.701 v 0.057 c 0.001,0.527 0.003,1.627 -0.604,2.234 -0.27,0.271 -0.628,0.41 -1.062,0.41 -0.709,0 -1.217,-0.385 -1.467,-1.115 -0.196,-0.57 -0.196,-1.225 -0.196,-1.578 M 32.824,95.85 h 2.164 v 0.762 h -0.663 v 3.689 h 0.663 v 0.762 h -2.164 v -0.762 h 0.657 v -3.689 h -0.657 z m -0.439,-7.227 h 0.843 v 4.451 h 2.114 v 0.761 h -2.957 z m -0.124,-7.229 h 0.869 l 1.226,3.008 v -3.008 h 0.843 v 5.263 h -0.762 l -1.332,-3.279 v 3.23 h -0.844 z m -0.512,12.441 h -0.903 l -0.437,-1.437 h -1.232 l -0.437,1.437 h -0.9 l 1.695,-5.212 h 0.51 z M 30.725,86.621 30.29,85.183 h -1.234 l -0.436,1.438 h -0.902 l 1.697,-5.213 h 0.51 l 1.703,5.213 z m -2.676,9.229 h 3.593 v 0.762 h -1.389 v 4.451 h -0.845 v -4.451 h -1.359 z m -4.021,5.211 1.697,-5.211 h 0.509 l 1.705,5.211 h -0.904 l -0.434,-1.438 h -1.235 l -0.435,1.438 z m -4.35,-12.438 h 0.843 v 3.766 c 0,0.727 0.521,0.78 0.68,0.78 0.446,0 0.672,-0.284 0.672,-0.841 v -3.705 h 0.846 v 3.766 c 0,1.012 -0.765,1.543 -1.518,1.543 -0.734,0 -1.521,-0.479 -1.521,-1.812 z m -3.456,7.227 h 0.869 l 1.225,3.006 V 95.85 h 0.842 v 5.26 h -0.76 l -1.332,-3.276 v 3.229 h -0.844 z m 2.396,-9.556 c -0.271,0.272 -0.629,0.409 -1.062,0.409 -0.71,0 -1.218,-0.385 -1.47,-1.112 -0.195,-0.57 -0.195,-1.227 -0.195,-1.578 0,-1.828 0.545,-2.711 1.665,-2.711 1.664,0 1.664,1.963 1.664,2.7 v 0.058 c 0,0.528 0.002,1.627 -0.602,2.234 m -3.276,2.329 h 3.594 v 0.762 h -1.389 v 4.45 h -0.845 v -4.45 h -1.36 z m -1.04,-4.274 1.382,2.259 h -1.011 l -1.187,-2.029 c -0.085,0.002 -0.171,0.004 -0.255,0.004 -0.072,0.002 -0.143,0.003 -0.215,0.004 v 2.021 h -0.843 v -5.214 h 1.434 c 1.454,0 1.497,1.394 1.497,1.551 0.003,0.598 -0.254,1.047 -0.802,1.404 m 0.846,9.486 H 12.19 v -5.212 h 0.844 v 4.451 h 2.114 z m -3.094,2.015 h 0.845 v 3.767 c 0,0.726 0.521,0.778 0.677,0.778 0.448,0 0.675,-0.28 0.675,-0.84 V 95.85 h 0.845 v 3.767 c 0,1.012 -0.765,1.543 -1.52,1.543 -0.732,0 -1.521,-0.479 -1.521,-1.813 z m -4.295,2.615 c 0,-1.826 0.546,-2.709 1.665,-2.709 1.664,0 1.664,1.961 1.664,2.701 v 0.057 c 0.001,0.527 0.004,1.627 -0.604,2.234 -0.271,0.271 -0.628,0.41 -1.062,0.41 -0.71,0 -1.221,-0.385 -1.471,-1.115 -0.192,-0.57 -0.192,-1.225 -0.192,-1.578 m 2.337,-13.366 v -3.705 h 0.841 v 3.767 c 0,1.014 -0.761,1.543 -1.514,1.543 -0.736,0 -1.521,-0.477 -1.521,-1.812 v -3.496 h 0.842 v 3.766 c 0,0.727 0.521,0.781 0.682,0.781 0.442,-0.001 0.67,-0.285 0.67,-0.844 m 0.841,3.524 v 3.766 c 0,1.012 -0.761,1.543 -1.514,1.543 -0.736,0 -1.521,-0.479 -1.521,-1.812 v -3.494 h 0.842 v 3.768 c 0,0.725 0.521,0.778 0.682,0.778 0.443,0 0.673,-0.282 0.673,-0.841 v -3.705 z m -6.75,7.227 h 2.951 v 0.762 H 5.031 v 1.357 h 1.578 v 0.764 H 5.031 v 2.33 H 4.187 Z M 3.755,91.256 c 0,-2.254 0.96,-2.729 1.765,-2.729 0.763,0 1.35,0.551 1.394,1.31 l 0.013,0.179 H 6.073 L 6.069,89.85 c -0.004,-0.324 -0.23,-0.561 -0.543,-0.561 -0.626,0 -0.93,0.648 -0.93,1.98 0,1.275 0.288,1.897 0.881,1.897 0.392,0 0.648,-0.271 0.652,-0.694 L 6.133,92.308 H 6.986 L 6.973,92.486 C 6.911,93.39 6.346,93.931 5.457,93.931 4.681,93.932 3.755,93.467 3.755,91.256 m 0.344,-9.862 h 2.869 v 0.764 H 4.943 v 1.398 h 1.456 v 0.762 H 4.943 v 1.529 h 2.072 v 0.761 H 4.099 Z M 22.946,69.013 H 7.097 c -1.499,0 -2.723,-1.193 -2.723,-2.66 V 51.094 c 0,-1.463 1.214,-2.654 2.702,-2.654 h 15.867 v 5.741 h -5.09 c -0.517,0 -0.938,0.42 -0.938,0.936 0,0.512 0.423,0.929 0.938,0.929 h 5.09 v 5.736 h -5.068 c -0.52,0 -0.938,0.416 -0.938,0.926 0,0.512 0.421,0.93 0.938,0.93 h 5.068 z m 0.15,14.041 c 0,1.039 -0.655,1.637 -1.801,1.637 h -0.261 v 1.917 H 20.19 v -5.212 h 1.34 c 0.981,-0.002 1.566,0.619 1.566,1.658 m 0.318,15.403 c 0,1.824 -0.542,2.605 -1.812,2.605 H 20.269 V 95.85 h 1.407 c 1.186,0 1.738,0.828 1.738,2.607 m 0.54,-9.834 h 1.436 c 1.453,0 1.496,1.391 1.496,1.551 0,0.596 -0.257,1.047 -0.807,1.404 l 1.386,2.257 h -1.014 l -1.184,-2.028 c -0.087,0 -0.173,0.002 -0.257,0.004 -0.072,0 -0.145,0.002 -0.214,0.004 v 2.021 h -0.845 z m 0.341,-7.229 h 2.866 v 0.764 h -2.024 v 1.398 h 1.455 v 0.762 h -1.455 v 1.529 h 2.072 v 0.761 H 24.295 Z M 43.4,51.52 c 0,1.469 -1.229,2.662 -2.74,2.662 H 27.518 c -1.495,0 -2.708,-1.195 -2.708,-2.665 V 36.289 c 0,-1.461 1.217,-2.648 2.715,-2.648 h 13.154 c 1.501,0 2.721,1.194 2.721,2.66 v 6.551 h -5.088 c -0.518,0 -0.938,0.416 -0.938,0.926 0,0.512 0.422,0.928 0.938,0.928 H 43.4 Z m 0,17.493 h -5.041 c -0.508,0 -0.928,0.407 -0.938,0.912 v 6.648 l -9.903,-0.032 c -1.495,0 -2.708,-1.19 -2.708,-2.653 V 58.689 c 0,-1.457 1.213,-2.643 2.707,-2.643 h 13.197 c 1.479,0 2.686,1.188 2.686,2.648 v 3.088 h -5.057 c -0.521,0 -0.939,0.416 -0.939,0.928 0,0.512 0.421,0.928 0.939,0.928 H 43.4 Z M 25.131,89.385 h -0.333 v 1.664 h 0.312 c 0.618,0 0.932,-0.306 0.932,-0.902 -0.001,-0.506 -0.142,-0.762 -0.911,-0.762 m -2.56,9.072 c 0,-1.846 -0.518,-1.846 -1.018,-1.846 h -0.442 v 3.689 h 0.454 c 0.518,0.001 1.006,0.001 1.006,-1.843 M 22.254,83.06 c 0,-0.633 -0.235,-0.902 -0.788,-0.902 h -0.431 v 1.771 h 0.396 c 0.531,0 0.823,-0.308 0.823,-0.869 M 8.986,96.693 C 8.718,96.964 8.59,97.535 8.602,98.386 v 0.109 c 0,0.398 -10e-4,1.338 0.384,1.725 0.115,0.116 0.259,0.174 0.438,0.174 0.224,0 0.82,0 0.82,-1.938 V 98.378 C 10.246,98.024 10.256,97.081 9.865,96.691 9.75,96.574 9.602,96.513 9.424,96.513 9.246,96.516 9.103,96.575 8.986,96.693 M 14.262,82.92 c 0,-0.506 -0.142,-0.763 -0.909,-0.763 h -0.334 v 1.665 h 0.314 c 0.617,0 0.929,-0.305 0.929,-0.902 m 4.115,1.082 0.001,-0.077 c 0.002,-0.355 0.009,-1.295 -0.381,-1.687 -0.116,-0.118 -0.263,-0.177 -0.441,-0.177 -0.177,0 -0.319,0.06 -0.438,0.179 -0.267,0.272 -0.396,0.842 -0.384,1.694 v 0.109 c 0,0.4 -0.002,1.338 0.384,1.725 0.118,0.115 0.261,0.174 0.438,0.174 0.223,0 0.821,0 0.821,-1.94 m 7.604,13.615 -0.391,1.247 h 0.784 z m 3.3,-13.194 h 0.783 L 29.67,83.177 Z m 0.121,7.216 h 0.784 L 29.79,90.391 Z m 7.929,5.054 c -0.268,0.271 -0.396,0.842 -0.385,1.693 l 0.001,0.109 c -0.001,0.398 -0.001,1.338 0.384,1.725 0.117,0.116 0.262,0.174 0.438,0.174 0.225,0 0.822,0 0.822,-1.938 v -0.078 c 0.003,-0.354 0.01,-1.297 -0.377,-1.687 -0.119,-0.117 -0.266,-0.178 -0.445,-0.178 -0.176,0.003 -0.321,0.062 -0.438,0.18" /></g></svg>