<svg version="1.1" id="Capa_1" xmlns="http://www.w3.org/2000/svg" xmlns:xlink="http://www.w3.org/1999/xlink" x="0px" y="0px" width="512.015px" height="512.015px" viewBox="0 0 512.015 512.015" style="enable-background:new 0 0 512.015 512.015;" xml:space="preserve">
<g>
    <path d="M462.504,468.219l-33.938,33.938c-6.062,6.03-23.812,9.843-24.344,9.843c-107.438,0.906-210.875-41.281-286.891-117.312   C41.098,318.469-1.137,214.625,0.035,106.875c0-0.063,3.891-17.313,9.938-23.313l33.938-33.969   c12.453-12.438,36.297-18.063,53-12.5l7.156,2.406c16.703,5.563,34.156,24,38.781,40.969l17.094,62.719   c4.641,17-1.594,41.188-14.031,53.625L123.223,219.5c22.25,82.469,86.922,147.125,169.343,169.406l22.688-22.688   c12.438-12.438,36.688-18.655,53.688-14.03l62.719,17.125c16.938,4.594,35.375,22.03,40.969,38.75l2.375,7.155   C480.566,431.938,474.941,455.781,462.504,468.219z M210.692,190.438v-26.5L234.91,142c40.905-36.563,60.78-57.594,61.344-79.5   c0-15.25-9.219-27.375-30.813-27.375c-16.155,0-30.25,8.063-40.062,15.563l-12.374-31.375C227.129,8.625,249.004,0,274.379,0   c42.344,0,65.656,24.75,65.656,58.75c0,31.438-22.75,56.5-49.813,80.688l-17.312,14.375v0.594h70.595v36.031H210.692z    M448.035,190.438V145.75h-82.969v-28.5L435.941,3.188h53.595v109.75h22.468v32.813h-22.469v44.688L448.035,190.438   L448.035,190.438z M448.035,112.938v-41.5c0-11.25,0.562-22.75,1.438-34.875h-1.156c-6.03,12.125-10.938,23.063-17.28,34.875   l-25.063,40.906v0.594H448.035z" style="fill: rgb(255, 255, 255);"></path>
</g>
</svg>
