<?xml version="1.0" encoding="utf-8"?>
<!-- Generator: Adobe Illustrator 16.0.0, SVG Export Plug-In . SVG Version: 6.00 Build 0)  -->
<!DOCTYPE svg PUBLIC "-//W3C//DTD SVG 1.1//EN" "http://www.w3.org/Graphics/SVG/1.1/DTD/svg11.dtd">
<svg version="1.1" id="Layer_1" xmlns="http://www.w3.org/2000/svg" xmlns:xlink="http://www.w3.org/1999/xlink" x="0px" y="0px"
	 width="68.277px" height="68.277px" viewBox="0 0 68.277 68.277" enable-background="new 0 0 68.277 68.277" xml:space="preserve">
<g>
	<rect fill="#6C4496" width="68.277" height="68.277"/>
	<g>
		<path fill="#FFFFFF" d="M62.021,27.343c0.016-0.155,0.022-0.307,0.022-0.459c0-3.114-2.561-5.632-5.693-5.58
			c-0.518-2.545-2.773-4.466-5.469-4.466c-0.689,0-1.365,0.126-1.998,0.37c-1.007-1.594-2.77-2.602-4.699-2.602
			c-1.928,0-3.691,1.008-4.698,2.602c-0.286-0.109-0.582-0.188-0.882-0.249v-4.585c0-3.078-2.504-5.581-5.581-5.581H11.815
			c-3.077,0-5.58,2.503-5.58,5.581v12.932l-1.443-1.443L3.214,25.44l3.349,3.349c0.217,0.218,0.503,0.327,0.789,0.327
			c0.285,0,0.571-0.109,0.789-0.327l3.348-3.349L9.91,23.862l-1.443,1.443V12.374c0-1.846,1.503-3.349,3.349-3.349h21.207
			c1.847,0,3.349,1.502,3.349,3.349v4.586c-2.214,0.452-3.957,2.21-4.371,4.437c-1.947,0.363-3.542,1.74-4.215,3.562
			c-0.997-0.892-2.299-1.423-3.691-1.423c-1.929,0-3.692,1.008-4.699,2.602c-0.633-0.243-1.309-0.369-1.998-0.369
			c-2.695,0-4.951,1.921-5.469,4.466c-3.104-0.061-5.692,2.465-5.692,5.58c0,0.152,0.007,0.303,0.022,0.458
			c-2.005,0.869-3.371,2.876-3.371,5.122c0,2.696,1.921,4.95,4.465,5.468v3.461c0,0.616,0.5,1.116,1.115,1.116h2.232
			c2.695,0,4.95-1.921,5.469-4.464h4.577v8.929c0,3.078,2.503,5.581,5.581,5.581h18.975c3.076,0,5.58-2.503,5.58-5.581V44.088
			l1.443,1.443l1.578-1.578l-3.349-3.349c-0.437-0.437-1.142-0.437-1.578,0l-3.349,3.349l1.578,1.578l1.443-1.443v11.815
			c0,1.847-1.502,3.349-3.348,3.349H26.326c-1.847,0-3.349-1.502-3.349-3.349v-8.929h15.626c3.077,0,5.58-2.504,5.58-5.581
			c0-1.243-0.43-2.404-1.143-3.348h9.068c0.519,2.543,2.774,4.464,5.469,4.464h2.232c0.616,0,1.115-0.5,1.115-1.116v-3.461
			c2.544-0.518,4.465-2.773,4.465-5.468C65.391,30.219,64.024,28.211,62.021,27.343z M29.674,35.813
			c-1.846,0-3.348-1.502-3.348-3.349c0-1.571,1.114-2.949,2.651-3.273c0.303-0.065,0.565-0.251,0.725-0.516
			c0.1-0.164,0.136-0.349,0.143-0.537C30.149,28.048,30.467,28,30.79,28c1.847,0,3.349,1.502,3.349,3.348
			c0,0.616,0.5,1.116,1.116,1.116c1.846,0,3.349,1.502,3.349,3.349H29.674z M39.3,38.12c1.537,0.325,2.652,1.702,2.652,3.273
			c0,1.846-1.503,3.349-3.349,3.349H15.164c-0.616,0-1.116,0.5-1.116,1.116c0,1.846-1.502,3.349-3.349,3.349H9.583v-3.349
			c0-0.616-0.499-1.116-1.116-1.116c-1.846,0-3.348-1.502-3.348-3.349c0-1.571,1.115-2.949,2.651-3.273
			c0.303-0.065,0.565-0.251,0.725-0.516s0.202-0.584,0.117-0.882c-0.099-0.35-0.146-0.639-0.146-0.91
			c0-1.846,1.503-3.349,3.349-3.349c0.253,0,0.522,0.041,0.848,0.126c0.343,0.091,0.706,0.012,0.983-0.209
			c0.275-0.221,0.431-0.561,0.416-0.914c-0.002-0.068-0.01-0.125-0.015-0.12c0-1.846,1.503-3.348,3.349-3.348
			c0.672,0,1.319,0.199,1.874,0.574c0.288,0.194,0.648,0.247,0.977,0.135c0.329-0.108,0.588-0.364,0.703-0.691
			c0.47-1.346,1.733-2.25,3.144-2.25c1.244,0,2.374,0.707,2.945,1.798c-1.766,0.955-2.945,2.818-2.945,4.898
			c0,3.078,2.503,5.581,5.58,5.581h9.455C39.188,38.069,39.237,38.108,39.3,38.12z M59.811,35.813c-0.616,0-1.116,0.5-1.116,1.116
			v3.348h-1.116c-1.847,0-3.349-1.502-3.349-3.348c0-0.616-0.5-1.116-1.116-1.116H40.836c0-2.728-1.968-5.005-4.559-5.487
			c-0.482-2.591-2.759-4.559-5.487-4.559c-0.316,0-0.629,0.033-0.938,0.086c0.438-1.34,1.686-2.318,3.17-2.318
			c0.616,0,1.116-0.5,1.116-1.116c0-1.846,1.502-3.348,3.349-3.348c0.672,0,1.319,0.199,1.874,0.574
			c0.287,0.194,0.648,0.246,0.977,0.135c0.329-0.108,0.588-0.364,0.703-0.69c0.47-1.346,1.733-2.25,3.143-2.25
			c1.41,0,2.674,0.904,3.145,2.25c0.115,0.327,0.374,0.582,0.703,0.69c0.328,0.111,0.689,0.06,0.977-0.135
			c0.554-0.375,1.201-0.574,1.873-0.574c1.847,0,3.349,1.502,3.351,3.279c-0.005,0.038-0.017,0.15-0.018,0.188
			c-0.015,0.354,0.141,0.693,0.416,0.915c0.277,0.221,0.64,0.299,0.983,0.208c0.326-0.085,0.596-0.125,0.849-0.125
			c1.846,0,3.349,1.502,3.349,3.349c0,0.271-0.047,0.561-0.146,0.91c-0.085,0.298-0.043,0.617,0.117,0.881
			c0.159,0.265,0.422,0.452,0.725,0.516c1.538,0.325,2.652,1.702,2.652,3.273C63.158,34.311,61.656,35.813,59.811,35.813z"/>
		<rect x="49.765" y="7.909" fill="#FFFFFF" width="2.232" height="2.232"/>
		<rect x="54.229" y="7.909" fill="#FFFFFF" width="2.232" height="2.232"/>
		<rect x="58.694" y="7.909" fill="#FFFFFF" width="2.231" height="2.232"/>
		<rect x="7.352" y="59.252" fill="#FFFFFF" width="2.231" height="2.232"/>
		<rect x="11.815" y="59.252" fill="#FFFFFF" width="2.232" height="2.232"/>
		<rect x="16.28" y="59.252" fill="#FFFFFF" width="2.232" height="2.232"/>
	</g>
</g>
</svg>
