<?xml version="1.0" encoding="utf-8"?>
<!-- Generator: Adobe Illustrator 16.0.0, SVG Export Plug-In . SVG Version: 6.00 Build 0)  -->
<!DOCTYPE svg PUBLIC "-//W3C//DTD SVG 1.1//EN" "http://www.w3.org/Graphics/SVG/1.1/DTD/svg11.dtd">
<svg version="1.1" id="Layer_1" xmlns="http://www.w3.org/2000/svg" xmlns:xlink="http://www.w3.org/1999/xlink" x="0px" y="0px"
	 width="68.277px" height="68.277px" viewBox="0 0 68.277 68.277" enable-background="new 0 0 68.277 68.277" xml:space="preserve">
<g>
	<rect fill="#DF932F" width="68.277" height="68.277"/>
	<g>
		<g>
			<path fill="#FFFFFF" d="M65.537,24.403c-0.215-0.099-5.34-2.408-14.561-2.408
				c-5.107,0-7.88,0.786-10.324,1.488c-2.017,0.574-3.762,1.068-6.514,1.068c-2.755,0-4.496-0.494-6.513-1.068
				c-2.444-0.702-5.218-1.488-10.324-1.488c-9.222,0-14.347,2.31-14.561,2.408c-0.274,0.124-0.457,0.388-0.479,0.688l-0.268,3.953
				c-0.021,0.349,0.189,0.681,0.524,0.814c0.354,0.138,0.761,0.409,0.817,0.525c0.047,0.141,0.132,0.578,0.265,1.202
				c0.417,2.014,1.191,5.766,2.141,8.262c1.096,2.888,2.263,4.129,4.982,5.3c1.623,0.701,4.129,1.135,6.545,1.135
				c2.359,0,4.557-0.408,6.353-1.181c4.679-2.017,5.799-5.077,7.223-8.949c0.207-0.575,0.39-1.093,0.55-1.559
				c0.992-2.846,1.178-3.212,2.744-3.212s1.756,0.366,2.744,3.212c0.164,0.469,0.343,0.983,0.554,1.556
				c1.417,3.875,2.534,6.936,7.216,8.952c1.799,0.772,3.997,1.181,6.355,1.181c2.413,0,4.922-0.434,6.549-1.135
				c2.716-1.171,3.879-2.412,4.979-5.3c0.942-2.482,1.717-6.224,2.135-8.229c0.135-0.639,0.225-1.086,0.264-1.217
				c0.067-0.134,0.475-0.405,0.824-0.543c0.336-0.134,0.546-0.466,0.524-0.814l-0.268-3.953
				C65.993,24.791,65.808,24.527,65.537,24.403L65.537,24.403L65.537,24.403z M26.127,38.416c-1.467,3.043-4.547,4.587-9.15,4.587
				c-3.693,0-5.96-0.832-7.348-2.693c-1.342-1.806-2.966-9.517-1.906-11.9c1.018-2.278,5.71-3.093,9.771-3.093
				c4.265,0,9.329,0.882,10.363,2.811C28.922,30.105,28.275,33.952,26.127,38.416L26.127,38.416L26.127,38.416z M58.648,40.306
				c-1.388,1.865-3.654,2.697-7.348,2.697c-4.604,0-7.684-1.544-9.15-4.587c-2.145-4.464-2.794-8.308-1.734-10.289
				c1.039-1.929,6.103-2.807,10.371-2.807c4.054,0,8.75,0.811,9.768,3.089C61.614,30.793,59.991,38.504,58.648,40.306L58.648,40.306
				L58.648,40.306z"/>
		</g>
	</g>
</g>
</svg>
