<?xml version="1.0" encoding="utf-8"?>
<!-- Generator: Adobe Illustrator 15.0.0, SVG Export Plug-In . SVG Version: 6.00 Build 0)  -->
<!DOCTYPE svg PUBLIC "-//W3C//DTD SVG 1.1//EN" "http://www.w3.org/Graphics/SVG/1.1/DTD/svg11.dtd">
<svg version="1.1" id="Layer_1" xmlns="http://www.w3.org/2000/svg" xmlns:xlink="http://www.w3.org/1999/xlink" x="0px" y="0px"
	 width="68.277px" height="68.277px" viewBox="0 0 68.277 68.277" enable-background="new 0 0 68.277 68.277" xml:space="preserve">
<g>
	<rect x="0" y="0" fill="#CC1F58" width="68.277" height="68.277"/>
	<g>
		<path fill="#FFFFFF" d="M17.147,23.987c2.181-2.359,4.344-4.705,6.538-7.093c-0.917-1.221-1.389-2.554-1.14-4.08
			c0.181-1.137,0.694-2.096,1.542-2.873c1.609-1.499,4.024-1.763,5.911-0.638c2.138,1.264,2.844,3.429,2.068,6.342
			c1.54,0.902,3.08,1.805,4.69,2.733c0.93-1.124,2.082-1.847,3.539-1.984c1.457-0.139,2.733,0.318,3.872,1.276
			c1.957-1.707,3.887-3.399,5.802-5.064c-1.36-3.276-0.819-5.704,1.555-7.162C53.633,4.155,56.312,4.6,57.922,6.5
			c1.568,1.832,1.556,4.607-0.026,6.438c-1.818,2.097-4.346,2.275-7.204,0.486c-1.914,1.679-3.844,3.358-5.759,5.037
			c1.263,3.055,0.973,5.079-0.942,6.718c-1.624,1.389-3.983,1.567-5.816,0.444c-2.066-1.264-2.72-3.303-1.999-6.3
			c-1.458-0.848-2.928-1.721-4.412-2.555c-0.111-0.069-0.361-0.041-0.458,0.055c-2.651,2.152-3.913,2.319-6.829,0.848
			c-2.165,2.347-4.344,4.705-6.536,7.092c0.984,1.306,1.441,2.734,1.081,4.357c-0.264,1.208-0.901,2.179-1.874,2.916
			c-1.956,1.498-4.718,1.304-6.466-0.417c-1.792-1.749-2.015-4.511-0.527-6.522C11.736,22.918,14.289,22.502,17.147,23.987z
			 M56.853,9.72c0.014-1.486-1.206-2.734-2.706-2.762C52.662,6.944,51.4,8.165,51.372,9.65c-0.026,1.513,1.235,2.804,2.749,2.804
			C55.604,12.454,56.839,11.219,56.853,9.72z M30.207,13.591c0-1.483-1.234-2.732-2.732-2.732c-1.485,0-2.735,1.221-2.749,2.72
			c-0.015,1.513,1.264,2.79,2.762,2.775C28.986,16.326,30.207,15.077,30.207,13.591z M38.062,21.309
			c-0.027,1.483,1.18,2.762,2.665,2.802c1.499,0.042,2.79-1.207,2.816-2.733c0.014-1.484-1.209-2.734-2.707-2.762
			C39.34,18.603,38.076,19.823,38.062,21.309z M16.884,28.026c0-1.484-1.234-2.735-2.734-2.735
			c-1.485-0.014-2.733,1.223-2.747,2.706c-0.013,1.514,1.262,2.791,2.762,2.776C15.662,30.759,16.884,29.51,16.884,28.026z"/>
		<path fill="#FFFFFF" d="M59.103,42.472c0,6.148,0,12.31,0,18.458c0,1.805-0.834,2.624-2.623,2.624c-1.64,0-3.29,0-4.929,0
			c-1.526,0-2.414-0.903-2.414-2.417c0-12.448,0-24.883,0-37.332c0-1.527,0.9-2.415,2.414-2.415c1.706-0.014,3.429-0.014,5.136,0
			c1.525,0,2.416,0.9,2.416,2.415C59.116,30.024,59.103,36.255,59.103,42.472z M51.413,23.668c0,0.984,0,1.888,0,2.775
			c-0.014,4.855-0.028,9.714-0.028,14.557c0,6.536,0.016,13.088,0,19.624c0,0.514,0.141,0.681,0.669,0.666
			c1.386-0.026,2.773-0.042,4.16,0c0.543,0.015,0.652-0.18,0.652-0.679c-0.014-11.116,0-22.248,0-33.365c0-1.192,0-2.386,0-3.606
			C55.007,23.668,53.231,23.668,51.413,23.668z"/>
		<path fill="#FFFFFF" d="M22.49,45.734c0-5.025,0-10.035,0-15.058c0-1.805,0.833-2.624,2.624-2.624c1.638,0,3.289,0,4.927,0
			c1.526,0.013,2.415,0.9,2.415,2.414c0,10.229,0,20.443,0,30.671c0,1.526-0.902,2.417-2.415,2.417c-1.708,0-3.429,0-5.136,0
			c-1.527,0-2.416-0.903-2.416-2.417C22.477,56.003,22.49,50.869,22.49,45.734z M24.725,30.33c0,1.373,0,2.691,0,4.01
			c0,5.386,0,10.771,0,16.153c0,3.373,0.027,6.745,0,10.132c0,0.57,0.181,0.708,0.721,0.695c1.319-0.029,2.637-0.042,3.956,0
			c0.624,0.027,0.819-0.153,0.819-0.806c-0.016-8.855,0-17.708,0-26.562c0-1.194,0-2.388,0-3.623
			C28.375,30.33,26.599,30.33,24.725,30.33z"/>
		<path fill="#FFFFFF" d="M45.778,49.204c0,3.926,0,7.868,0,11.795c0,1.707-0.847,2.556-2.553,2.568c-1.666,0-3.332,0-4.997,0
			c-1.527,0-2.415-0.902-2.415-2.415c0-8.008,0-16.001,0-24.009c0-1.526,0.9-2.415,2.415-2.415c1.707-0.016,3.427-0.016,5.135,0
			c1.526,0,2.414,0.901,2.414,2.415C45.792,41.155,45.778,45.179,45.778,49.204z M38.089,36.99c0,1.082,0,2.068,0,3.067
			c0,6.883,0,13.78-0.026,20.665c0,0.458,0.152,0.598,0.597,0.583c1.359-0.027,2.733-0.041,4.095,0
			c0.598,0.015,0.791-0.125,0.791-0.765c-0.014-6.632,0-13.267,0-19.9c0-1.222,0-2.429,0-3.664
			C41.67,36.99,39.907,36.99,38.089,36.99z"/>
		<path fill="#FFFFFF" d="M19.132,52.464c0,2.873,0,5.731,0,8.604c0,1.611-0.875,2.485-2.483,2.485c-1.693,0-3.372,0-5.065,0
			c-1.526,0-2.415-0.903-2.415-2.417c0-5.787,0-11.561,0-17.347c0-1.526,0.901-2.415,2.415-2.415c1.707-0.016,3.427-0.016,5.134,0
			c1.527,0,2.415,0.901,2.415,2.415C19.147,46.678,19.132,49.578,19.132,52.464z M11.445,43.651c0,1.042,0,1.999,0,2.971
			c0,4.691,0,9.381-0.029,14.072c0,0.5,0.182,0.625,0.652,0.61c1.36-0.027,2.735-0.027,4.095,0c0.568,0.015,0.748-0.152,0.748-0.735
			c-0.014-4.441,0-8.869,0-13.309c0-1.194,0-2.388,0-3.623C15.039,43.651,13.276,43.651,11.445,43.651z"/>
	</g>
</g>
<rect x="0" y="0" fill="#00B9C1" width="68.277" height="68.277"/>
<path fill="#FFFFFF" d="M52.328,42.224c3.972-4.121,6.182-9.628,6.158-15.351C58.438,14.725,48.551,4.916,36.403,4.965
	C24.254,5.012,14.445,14.9,14.493,27.048c0.001,1.497-0.312,2.978-0.922,4.345l-3.626,8.138c-0.019,0.043-0.035,0.088-0.051,0.133
	c-0.341,0.996,0.189,2.082,1.187,2.424l3.412,1.129v8.359c0,2.184,1.771,3.953,3.953,3.953h8.484l1.783,6.189l0,0
	c0.332,1.166,1.545,1.842,2.711,1.51l22.758-6.498c0.001,0,0.001,0,0.001,0c1.166-0.332,1.841-1.545,1.511-2.711L52.328,42.224z
	 M30.307,31.993c0.622,0.659,0.593,1.698-0.066,2.319c-0.318,0.299-0.724,0.447-1.127,0.447c-0.436,0-0.871-0.171-1.194-0.514
	l-6.657-7.054c-0.597-0.632-0.597-1.621,0-2.253l6.658-7.051c0.622-0.659,1.661-0.689,2.32-0.067s0.688,1.661,0.066,2.32
	l-5.594,5.924L30.307,31.993z M40.563,19.695l-5.344,13.921c-0.25,0.652-0.872,1.052-1.531,1.052c-0.196,0-0.395-0.035-0.589-0.109
	c-0.846-0.324-1.269-1.273-0.943-2.119L37.5,18.518c0.324-0.846,1.274-1.268,2.12-0.944C40.467,17.899,40.888,18.849,40.563,19.695z
	 M51.456,27.196l-6.658,7.05c-0.322,0.342-0.758,0.513-1.193,0.513c-0.404,0-0.809-0.148-1.127-0.447
	c-0.659-0.621-0.688-1.66-0.065-2.32l5.594-5.924l-5.596-5.927c-0.621-0.66-0.592-1.698,0.067-2.32
	c0.659-0.623,1.698-0.592,2.32,0.067l6.658,7.055C52.052,25.575,52.052,26.564,51.456,27.196z"/>
</svg>
