<?xml version="1.0" encoding="utf-8"?>
<!-- Generator: Adobe Illustrator 16.0.0, SVG Export Plug-In . SVG Version: 6.00 Build 0)  -->
<!DOCTYPE svg PUBLIC "-//W3C//DTD SVG 1.1//EN" "http://www.w3.org/Graphics/SVG/1.1/DTD/svg11.dtd">
<svg version="1.1" id="Layer_1" xmlns="http://www.w3.org/2000/svg" xmlns:xlink="http://www.w3.org/1999/xlink" x="0px" y="0px"
	 width="68.277px" height="68.277px" viewBox="0 0 68.277 68.277" enable-background="new 0 0 68.277 68.277" xml:space="preserve">
<g>
	<rect fill="#CC1F58" width="68.277" height="68.277"/>
	<g>
		<path fill="#FFFFFF" d="M17.147,23.987c2.181-2.359,4.344-4.705,6.538-7.093c-0.917-1.22-1.388-2.553-1.139-4.08
			c0.18-1.137,0.694-2.096,1.542-2.873c1.609-1.499,4.024-1.763,5.911-0.638c2.137,1.264,2.844,3.429,2.068,6.342
			c1.54,0.903,3.08,1.805,4.691,2.734c0.929-1.124,2.082-1.847,3.539-1.985s2.733,0.319,3.872,1.277
			c1.957-1.707,3.886-3.4,5.801-5.065c-1.36-3.276-0.819-5.704,1.555-7.162C53.633,4.155,56.312,4.6,57.922,6.5
			c1.568,1.832,1.555,4.607-0.027,6.438c-1.818,2.097-4.345,2.276-7.204,0.487c-1.914,1.678-3.844,3.358-5.759,5.037
			c1.263,3.054,0.973,5.079-0.942,6.717c-1.624,1.389-3.983,1.568-5.816,0.445c-2.067-1.264-2.72-3.303-1.999-6.3
			c-1.458-0.848-2.928-1.721-4.413-2.555c-0.111-0.069-0.361-0.041-0.458,0.055c-2.651,2.152-3.913,2.319-6.829,0.848
			c-2.165,2.346-4.343,4.705-6.536,7.091c0.985,1.306,1.442,2.735,1.081,4.358c-0.263,1.208-0.901,2.179-1.874,2.916
			c-1.956,1.498-4.718,1.304-6.466-0.417c-1.792-1.749-2.014-4.511-0.527-6.523C11.736,22.918,14.289,22.502,17.147,23.987z
			 M56.853,9.72c0.014-1.486-1.206-2.734-2.706-2.761c-1.485-0.015-2.747,1.206-2.775,2.691c-0.027,1.513,1.235,2.804,2.749,2.804
			C55.604,12.454,56.839,11.219,56.853,9.72z M30.207,13.591c0-1.484-1.235-2.733-2.733-2.733c-1.485,0-2.735,1.221-2.749,2.72
			c-0.014,1.513,1.264,2.79,2.762,2.775C28.986,16.326,30.207,15.077,30.207,13.591z M38.062,21.309
			c-0.027,1.484,1.18,2.762,2.665,2.802c1.499,0.042,2.79-1.207,2.817-2.733c0.013-1.485-1.209-2.735-2.707-2.762
			C39.34,18.603,38.076,19.823,38.062,21.309z M16.884,28.026c0-1.484-1.235-2.735-2.735-2.735
			c-1.485-0.014-2.733,1.222-2.747,2.706c-0.013,1.513,1.262,2.791,2.762,2.776C15.662,30.759,16.884,29.51,16.884,28.026z"/>
		<path fill="#FFFFFF" d="M59.103,42.472c0,6.149,0,12.31,0,18.458c0,1.805-0.834,2.624-2.623,2.624c-1.639,0-3.29,0-4.928,0
			c-1.527,0-2.415-0.903-2.415-2.417c0-12.448,0-24.882,0-37.332c0-1.527,0.901-2.415,2.415-2.415c1.706-0.013,3.428-0.013,5.135,0
			c1.526,0,2.416,0.901,2.416,2.415C59.116,30.024,59.103,36.255,59.103,42.472z M51.413,23.668c0,0.984,0,1.887,0,2.775
			c-0.014,4.856-0.028,9.714-0.028,14.557c0,6.536,0.015,13.088,0,19.624c0,0.513,0.14,0.68,0.668,0.666
			c1.386-0.027,2.774-0.042,4.161,0c0.543,0.014,0.652-0.18,0.652-0.679c-0.014-11.116,0-22.248,0-33.365c0-1.193,0-2.386,0-3.607
			C55.007,23.668,53.231,23.668,51.413,23.668z"/>
		<path fill="#FFFFFF" d="M22.49,45.734c0-5.025,0-10.035,0-15.058c0-1.804,0.833-2.624,2.624-2.624c1.638,0,3.289,0,4.927,0
			c1.526,0.013,2.415,0.901,2.415,2.415c0,10.229,0,20.443,0,30.67c0,1.527-0.903,2.417-2.415,2.417c-1.708,0-3.429,0-5.136,0
			c-1.527,0-2.416-0.903-2.416-2.417C22.477,56.003,22.49,50.869,22.49,45.734z M24.725,30.33c0,1.373,0,2.691,0,4.01
			c0,5.385,0,10.77,0,16.153c0,3.373,0.028,6.745,0,10.132c0,0.57,0.181,0.708,0.721,0.695c1.319-0.029,2.637-0.042,3.956,0
			c0.624,0.027,0.819-0.153,0.819-0.806c-0.015-8.855,0-17.708,0-26.562c0-1.194,0-2.388,0-3.623
			C28.375,30.33,26.599,30.33,24.725,30.33z"/>
		<path fill="#FFFFFF" d="M45.778,49.204c0,3.926,0,7.868,0,11.795c0,1.707-0.847,2.555-2.553,2.568c-1.666,0-3.332,0-4.997,0
			c-1.527,0-2.415-0.902-2.415-2.415c0-8.008,0-16.001,0-24.009c0-1.526,0.901-2.415,2.415-2.415c1.707-0.015,3.427-0.015,5.135,0
			c1.526,0,2.414,0.902,2.414,2.415C45.792,41.155,45.778,45.179,45.778,49.204z M38.089,36.99c0,1.082,0,2.068,0,3.067
			c0,6.883,0,13.781-0.027,20.665c0,0.458,0.153,0.598,0.597,0.583c1.359-0.027,2.733-0.041,4.095,0
			c0.597,0.015,0.791-0.125,0.791-0.764c-0.014-6.632,0-13.267,0-19.901c0-1.221,0-2.428,0-3.664
			C41.67,36.99,39.907,36.99,38.089,36.99z"/>
		<path fill="#FFFFFF" d="M19.132,52.464c0,2.873,0,5.731,0,8.604c0,1.611-0.875,2.485-2.484,2.485c-1.693,0-3.372,0-5.065,0
			c-1.527,0-2.415-0.903-2.415-2.417c0-5.787,0-11.56,0-17.346c0-1.527,0.901-2.415,2.415-2.415c1.707-0.016,3.427-0.016,5.134,0
			c1.527,0,2.415,0.901,2.415,2.415C19.147,46.678,19.132,49.578,19.132,52.464z M11.445,43.651c0,1.042,0,1.999,0,2.971
			c0,4.691,0,9.381-0.029,14.072c0,0.5,0.181,0.625,0.652,0.61c1.36-0.027,2.735-0.027,4.095,0c0.568,0.015,0.748-0.152,0.748-0.735
			c-0.014-4.441,0-8.869,0-13.309c0-1.194,0-2.387,0-3.623C15.039,43.651,13.276,43.651,11.445,43.651z"/>
	</g>
</g>
</svg>
