<?xml version="1.0" encoding="utf-8"?>
<!-- Generator: Adobe Illustrator 16.0.0, SVG Export Plug-In . SVG Version: 6.00 Build 0)  -->
<!DOCTYPE svg PUBLIC "-//W3C//DTD SVG 1.1//EN" "http://www.w3.org/Graphics/SVG/1.1/DTD/svg11.dtd">
<svg version="1.1" id="Layer_1" xmlns="http://www.w3.org/2000/svg" xmlns:xlink="http://www.w3.org/1999/xlink" x="0px" y="0px"
	 width="102.416px" height="102.416px" viewBox="0 0 102.416 102.416" enable-background="new 0 0 102.416 102.416"
	 xml:space="preserve">
<rect fill="#4F8E3A" width="102.416" height="102.416"/>
<g>
	<path fill="#FFFFFF" d="M69.865,78.956c-2.428,0-4.711-0.945-6.43-2.662L52.323,65.183c-1.419-1.42-1.949-3.501-1.381-5.425
		l0.355-1.21L33.356,40.418c-0.095-0.094-0.209-0.165-0.336-0.209l-1.547-0.54c-1.417-0.494-2.656-1.453-3.488-2.702l-3.938-5.907
		c-0.458-0.687-0.367-1.605,0.217-2.187l4.905-4.906c0.584-0.583,1.503-0.677,2.19-0.217l5.904,3.938
		c1.249,0.831,2.207,2.069,2.702,3.487l0.545,1.561l0.204,0.33l17.956,18.14l1.142-0.317c1.898-0.524,3.946,0.012,5.342,1.408
		l11.141,11.139c1.716,1.716,2.661,4.001,2.661,6.428C78.957,74.877,74.878,78.956,69.865,78.956L69.865,78.956z M27.723,30.319
		l3.148,4.723c0.417,0.624,1.036,1.105,1.744,1.351l1.55,0.541c0.621,0.217,1.193,0.578,1.655,1.044l18.664,18.857
		c0.443,0.449,0.611,1.103,0.43,1.708l-0.645,2.194c-0.208,0.708-0.016,1.472,0.508,1.992L65.89,73.842
		c1.061,1.061,2.475,1.646,3.976,1.646c3.102,0,5.624-2.521,5.624-5.623c0-1.501-0.586-2.915-1.647-3.976L62.703,54.749
		c-0.512-0.512-1.264-0.711-1.964-0.517l-2.123,0.587c-0.604,0.17-1.253-0.005-1.696-0.453L38.25,35.503
		c-0.452-0.458-0.801-1.018-1.012-1.625l-0.546-1.561c-0.249-0.709-0.728-1.328-1.351-1.743l-4.725-3.15L27.723,30.319
		L27.723,30.319z M30.1,78.956c-3.663,0-6.641-2.98-6.641-6.639c0-1.774,0.689-3.441,1.947-4.694L39.577,53.45
		c0.677-0.678,1.774-0.678,2.451,0c0.678,0.678,0.678,1.774,0,2.452L27.857,70.074c-0.592,0.591-0.93,1.407-0.93,2.243
		c0,1.748,1.423,3.17,3.172,3.17c0.846,0,1.645-0.33,2.243-0.928l13.375-13.378c0.677-0.678,1.774-0.678,2.451,0
		c0.679,0.678,0.679,1.774,0,2.453L34.794,77.012C33.539,78.266,31.873,78.956,30.1,78.956L30.1,78.956z M66.03,49.451
		c-1.44,0-2.9-0.241-4.324-0.734c-0.901-0.312-1.384-1.3-1.071-2.204c0.314-0.905,1.299-1.387,2.207-1.071
		c3.497,1.208,7.272,0.351,9.865-2.241c1.576-1.577,2.534-3.63,2.742-5.842l-0.905-0.903l-4.906,4.906
		c-0.326,0.326-0.766,0.508-1.226,0.508c-0.461,0-0.902-0.182-1.227-0.508l-6.131-6.132c-0.678-0.678-0.678-1.774,0-2.452
		l4.905-4.906l-0.904-0.904c-2.209,0.207-4.26,1.166-5.839,2.744c-2.588,2.591-3.446,6.37-2.238,9.865
		c0.216,0.626,0.055,1.324-0.414,1.793l-0.659,0.661c-0.679,0.678-1.773,0.678-2.453,0c-0.651-0.652-0.676-1.698-0.072-2.378
		c-1.139-4.452,0.109-9.115,3.384-12.393c2.385-2.383,5.558-3.73,8.938-3.798c0.397-0.007,0.925,0.175,1.261,0.508l2.677,2.677
		c0.68,0.678,0.68,1.774,0,2.452l-4.905,4.904l3.678,3.681l4.908-4.906c0.677-0.678,1.772-0.678,2.449,0l2.68,2.678
		c0.332,0.333,0.516,0.789,0.508,1.26c-0.068,3.381-1.415,6.556-3.799,8.937C72.678,48.133,69.404,49.451,66.03,49.451L66.03,49.451
		z M59.013,62.48c-0.96,0-1.735-0.775-1.735-1.734c0-0.85,0.612-1.558,1.419-1.705c0.112-0.084,0.264-0.238,0.346-0.352
		c0.15-0.804,0.856-1.41,1.702-1.41c0.96,0,1.735,0.775,1.735,1.734C62.482,60.567,60.566,62.48,59.013,62.48L59.013,62.48z"/>
</g>
</svg>
