<?xml version="1.0" encoding="utf-8"?>
<!-- Generator: Adobe Illustrator 16.0.0, SVG Export Plug-In . SVG Version: 6.00 Build 0)  -->
<!DOCTYPE svg PUBLIC "-//W3C//DTD SVG 1.1//EN" "http://www.w3.org/Graphics/SVG/1.1/DTD/svg11.dtd">
<svg version="1.1" id="Layer_1" xmlns="http://www.w3.org/2000/svg" xmlns:xlink="http://www.w3.org/1999/xlink" x="0px" y="0px"
	 width="68.277px" height="68.277px" viewBox="0 0 68.277 68.277" enable-background="new 0 0 68.277 68.277" xml:space="preserve">
<g>
	<rect fill="#6DBCED" width="68.277" height="68.277"/>
	<g>
		<g>
			<path fill="#FFFFFF" d="M21.03,31.817c-0.429,0-0.714-0.286-0.714-0.714c0-15.215,6.071-27.074,13.786-27.074
				c0.429,0,0.714,0.286,0.714,0.715s-0.285,0.714-0.714,0.714c-6.857,0-12.358,11.501-12.358,25.645
				C21.744,31.531,21.388,31.817,21.03,31.817z"/>
		</g>
		<g>
			<path fill="#FFFFFF" d="M47.175,31.817c-0.429,0-0.714-0.286-0.714-0.714c0-14.144-5.572-25.645-12.358-25.645
				c-0.429,0-0.714-0.285-0.714-0.714s0.285-0.715,0.714-0.715c7.715,0,13.787,11.93,13.787,27.074
				C47.89,31.531,47.604,31.817,47.175,31.817z"/>
		</g>
		<g>
			<path fill="#FFFFFF" d="M34.103,31.817c-0.429,0-0.714-0.286-0.714-0.714V4.744c0-0.429,0.285-0.715,0.714-0.715
				s0.714,0.286,0.714,0.715v26.359C34.816,31.531,34.531,31.817,34.103,31.817z"/>
		</g>
		<g>
			<path fill="#FFFFFF" d="M60.318,31.817L60.318,31.817c-0.428,0-0.714-0.286-0.714-0.714c0-1.714-2.644-3.143-5.857-3.143
				c-3.215,0-5.857,1.429-5.857,3.143c0,0.428-0.286,0.714-0.715,0.714s-0.714-0.286-0.714-0.714c0-1.714-2.644-3.143-5.857-3.143
				c-3.144,0-5.857,1.429-5.857,3.143c0,0.428-0.286,0.714-0.715,0.714s-0.715-0.286-0.715-0.714c0-1.714-2.643-3.143-5.857-3.143
				c-3.071,0-5.643,1.429-5.643,3.143c0,0.428-0.286,0.714-0.715,0.714s-0.714-0.286-0.714-0.714c0-1.714-2.644-3.143-5.857-3.143
				c-3.215,0-5.858,1.429-5.858,3.143c0,0.428-0.285,0.714-0.714,0.714s-0.714-0.286-0.714-0.714
				C7.387,16.173,19.388,4.029,34.103,4.029c14.787,0,26.788,12.073,26.931,26.931c0,0.071,0,0.071,0,0.143
				C61.033,31.531,60.676,31.817,60.318,31.817z M40.675,26.531c2.929,0,5.357,1,6.571,2.571c1.144-1.5,3.644-2.571,6.572-2.571
				c2.286,0,4.357,0.643,5.644,1.714C57.961,15.459,47.175,5.458,34.103,5.458c-13.001,0-23.716,10.001-25.145,22.788
				c1.286-1,3.357-1.714,5.644-1.714c2.929,0,5.357,1,6.5,2.571c1.144-1.5,3.5-2.571,6.357-2.571c2.93,0,5.357,1,6.572,2.571
				C35.246,27.603,37.746,26.531,40.675,26.531z"/>
		</g>
		<g>
			<g>
				<path fill="#FFFFFF" d="M9.887,35.746c-0.214,0-0.429-0.071-0.571-0.286l-1.144-1.357c-0.285-0.286-0.214-0.786,0.072-1
					c0.285-0.214,0.785-0.214,1,0.072l1.143,1.357c0.286,0.286,0.215,0.786-0.071,1C10.172,35.675,10.029,35.746,9.887,35.746z"/>
			</g>
			<g>
				<path fill="#FFFFFF" d="M30.816,60.391c-0.214,0-0.428-0.071-0.571-0.286l-2.071-2.5c-0.286-0.286-0.215-0.786,0.071-1
					c0.286-0.285,0.786-0.214,1,0.072l2.071,2.5c0.286,0.286,0.215,0.786-0.071,1C31.174,60.391,31.031,60.391,30.816,60.391z
					 M26.674,55.462c-0.215,0-0.429-0.071-0.571-0.286l-2.072-2.5c-0.285-0.286-0.214-0.786,0.071-1
					c0.286-0.286,0.786-0.214,1,0.071l2.072,2.5c0.285,0.286,0.214,0.786-0.071,1C26.959,55.462,26.816,55.462,26.674,55.462z
					 M22.459,50.533c-0.214,0-0.429-0.072-0.571-0.286l-2.071-2.5c-0.286-0.286-0.215-0.786,0.071-1
					c0.285-0.286,0.785-0.214,1,0.071l2.071,2.5c0.286,0.286,0.215,0.786-0.071,1C22.816,50.533,22.602,50.533,22.459,50.533z
					 M18.244,45.604c-0.214,0-0.429-0.072-0.571-0.286l-2.071-2.5c-0.286-0.286-0.215-0.786,0.071-1
					c0.286-0.286,0.786-0.214,1,0.071l2.071,2.5c0.286,0.286,0.215,0.786-0.071,1C18.602,45.532,18.459,45.604,18.244,45.604z
					 M14.102,40.675c-0.215,0-0.429-0.071-0.572-0.286l-2.071-2.5c-0.285-0.286-0.214-0.786,0.071-1
					c0.286-0.286,0.786-0.214,1,0.071l2.072,2.5c0.285,0.286,0.214,0.786-0.071,1C14.387,40.604,14.244,40.675,14.102,40.675z"/>
			</g>
			<g>
				<path fill="#FFFFFF" d="M34.103,64.248c-0.214,0-0.429-0.071-0.571-0.286l-1.143-1.357c-0.286-0.286-0.215-0.786,0.071-1
					c0.285-0.286,0.785-0.214,1,0.072l1.143,1.357c0.286,0.286,0.214,0.786-0.071,1C34.46,64.177,34.245,64.248,34.103,64.248z"/>
			</g>
		</g>
		<g>
			<g>
				<path fill="#FFFFFF" d="M58.533,35.746c-0.143,0-0.357-0.071-0.5-0.143c-0.286-0.286-0.357-0.715-0.072-1l1.144-1.357
					c0.286-0.286,0.714-0.357,1-0.071c0.286,0.285,0.357,0.714,0.071,1l-1.143,1.357C58.891,35.675,58.747,35.746,58.533,35.746z"/>
			</g>
			<g>
				<path fill="#FFFFFF" d="M37.389,60.391c-0.143,0-0.357-0.071-0.5-0.143c-0.286-0.286-0.357-0.715-0.071-1l2.143-2.5
					c0.286-0.286,0.715-0.357,1-0.071c0.286,0.286,0.357,0.714,0.071,1l-2.143,2.5C37.817,60.319,37.603,60.391,37.389,60.391z
					 M41.604,55.462c-0.144,0-0.357-0.071-0.5-0.143c-0.286-0.286-0.357-0.714-0.072-1l2.144-2.5c0.286-0.286,0.714-0.357,1-0.072
					c0.286,0.286,0.357,0.715,0.071,1l-2.143,2.5C42.031,55.391,41.817,55.462,41.604,55.462z M45.817,50.533
					c-0.143,0-0.356-0.072-0.499-0.143c-0.286-0.286-0.357-0.714-0.072-1l2.144-2.5c0.285-0.286,0.714-0.357,1-0.071
					c0.285,0.286,0.356,0.714,0.071,1l-2.143,2.5C46.246,50.461,46.032,50.533,45.817,50.533z M50.032,45.604
					c-0.143,0-0.357-0.072-0.5-0.143c-0.285-0.286-0.357-0.714-0.071-1l2.143-2.5c0.286-0.286,0.715-0.357,1-0.071
					c0.286,0.285,0.357,0.714,0.072,1l-2.144,2.5C50.461,45.532,50.247,45.604,50.032,45.604z M54.318,40.675
					c-0.143,0-0.357-0.071-0.5-0.143c-0.285-0.286-0.357-0.714-0.071-1l2.143-2.5c0.286-0.286,0.715-0.357,1-0.071
					c0.286,0.286,0.357,0.714,0.071,1l-2.143,2.5C54.676,40.604,54.461,40.675,54.318,40.675z"/>
			</g>
			<g>
				<path fill="#FFFFFF" d="M34.103,64.248c-0.143,0-0.356-0.071-0.5-0.143c-0.286-0.286-0.357-0.715-0.071-1l1.143-1.357
					c0.286-0.286,0.715-0.357,1-0.071c0.286,0.285,0.357,0.714,0.072,1l-1.144,1.357C34.531,64.177,34.317,64.248,34.103,64.248z"/>
			</g>
		</g>
		<g>
			<g>
				<path fill="#FFFFFF" d="M22.03,36.032c-0.286,0-0.571-0.143-0.643-0.428l-0.715-1.644c-0.143-0.357,0-0.785,0.357-0.929
					c0.357-0.143,0.786,0,0.929,0.357l0.715,1.643c0.143,0.357,0,0.786-0.357,0.929C22.245,36.032,22.102,36.032,22.03,36.032z"/>
			</g>
			<g>
				<path fill="#FFFFFF" d="M32.103,59.676c-0.286,0-0.571-0.143-0.643-0.428l-1.286-2.929c-0.143-0.357,0-0.786,0.357-0.929
					c0.357-0.143,0.785,0,0.929,0.357l1.285,2.929c0.144,0.357,0,0.786-0.356,0.929C32.316,59.605,32.245,59.676,32.103,59.676z
					 M29.603,53.747c-0.286,0-0.571-0.143-0.644-0.428l-1.285-2.929c-0.143-0.357,0-0.786,0.357-0.929
					c0.356-0.143,0.785,0,0.928,0.357l1.286,2.929c0.144,0.357,0,0.786-0.356,0.929C29.816,53.747,29.674,53.747,29.603,53.747z
					 M27.103,47.818c-0.286,0-0.571-0.143-0.644-0.429l-1.285-2.929c-0.144-0.357,0-0.786,0.357-0.929
					c0.356-0.143,0.785,0,0.928,0.357l1.286,2.929c0.143,0.357,0,0.786-0.357,0.929C27.245,47.818,27.174,47.818,27.103,47.818z
					 M24.53,41.961c-0.285,0-0.571-0.143-0.643-0.429l-1.286-2.929c-0.143-0.357,0-0.786,0.357-0.929s0.786,0,0.929,0.357
					l1.286,2.929c0.143,0.357,0,0.786-0.357,0.929C24.745,41.961,24.674,41.961,24.53,41.961z"/>
			</g>
			<g>
				<path fill="#FFFFFF" d="M34.103,64.248c-0.286,0-0.571-0.143-0.643-0.429l-0.715-1.643c-0.143-0.357,0-0.786,0.357-0.929
					c0.357-0.143,0.786,0,0.929,0.357l0.715,1.643c0.143,0.357,0,0.786-0.357,0.929C34.317,64.248,34.174,64.248,34.103,64.248z"/>
			</g>
		</g>
		<g>
			<g>
				<path fill="#FFFFFF" d="M46.175,36.032c-0.071,0-0.214,0-0.285-0.071c-0.357-0.143-0.501-0.572-0.357-0.929l0.714-1.643
					c0.143-0.357,0.572-0.5,0.929-0.357c0.357,0.144,0.5,0.572,0.357,0.929l-0.714,1.644C46.746,35.889,46.461,36.032,46.175,36.032
					z"/>
			</g>
			<g>
				<path fill="#FFFFFF" d="M36.103,59.676c-0.071,0-0.214,0-0.285-0.071c-0.357-0.143-0.5-0.571-0.357-0.929l1.286-2.929
					c0.143-0.357,0.571-0.5,0.929-0.357c0.356,0.143,0.499,0.571,0.356,0.929l-1.285,2.929
					C36.603,59.462,36.317,59.676,36.103,59.676z M38.604,53.747c-0.072,0-0.215,0-0.286-0.071c-0.357-0.143-0.5-0.571-0.357-0.929
					l1.286-2.929c0.143-0.357,0.571-0.5,0.929-0.357c0.356,0.143,0.5,0.571,0.356,0.929l-1.285,2.929
					C39.175,53.604,38.889,53.747,38.604,53.747z M41.104,47.818c-0.072,0-0.215,0-0.286-0.071c-0.357-0.143-0.5-0.571-0.357-0.929
					l1.286-2.929c0.143-0.357,0.571-0.5,0.929-0.357c0.357,0.143,0.5,0.572,0.357,0.929l-1.286,2.929
					C41.675,47.676,41.389,47.818,41.104,47.818z M43.675,41.961c-0.071,0-0.214,0-0.286-0.071c-0.356-0.143-0.5-0.572-0.356-0.929
					l1.285-2.929c0.144-0.357,0.571-0.5,0.929-0.357s0.5,0.571,0.357,0.929l-1.286,2.929C44.175,41.747,43.961,41.961,43.675,41.961
					z"/>
			</g>
			<g>
				<path fill="#FFFFFF" d="M34.103,64.248c-0.071,0-0.214,0-0.286-0.071c-0.356-0.143-0.5-0.571-0.356-0.929l0.714-1.643
					c0.144-0.357,0.572-0.5,0.929-0.357c0.357,0.143,0.5,0.571,0.357,0.929l-0.714,1.643C34.674,64.105,34.389,64.248,34.103,64.248
					z"/>
			</g>
		</g>
	</g>
</g>
</svg>
